<?xml version="1.0" encoding="UTF-8" standalone="no"?>
<!-- Created with Inkscape (http://www.inkscape.org/) -->

<svg
   xmlns:dc="http://purl.org/dc/elements/1.1/"
   xmlns:cc="http://creativecommons.org/ns#"
   xmlns:rdf="http://www.w3.org/1999/02/22-rdf-syntax-ns#"
   xmlns:svg="http://www.w3.org/2000/svg"
   xmlns="http://www.w3.org/2000/svg"
   xmlns:sodipodi="http://sodipodi.sourceforge.net/DTD/sodipodi-0.dtd"
   xmlns:inkscape="http://www.inkscape.org/namespaces/inkscape"
   width="155mm"
   height="70mm"
   viewBox="0 0 155 70.000001"
   version="1.1"
   id="svg4508"
   inkscape:version="0.92.1 r15371"
   sodipodi:docname="bowieknife.svg">
  <defs
     id="defs4502" />
  <sodipodi:namedview
     id="base"
     pagecolor="#ffffff"
     bordercolor="#666666"
     borderopacity="1.0"
     inkscape:pageopacity="0.0"
     inkscape:pageshadow="2"
     inkscape:zoom="0.35"
     inkscape:cx="98.771897"
     inkscape:cy="-263.26058"
     inkscape:document-units="mm"
     inkscape:current-layer="layer1"
     showgrid="false"
     fit-margin-top="0"
     fit-margin-left="0"
     fit-margin-right="0"
     fit-margin-bottom="0"
     inkscape:window-width="1366"
     inkscape:window-height="706"
     inkscape:window-x="-8"
     inkscape:window-y="-8"
     inkscape:window-maximized="1" />
  <metadata
     id="metadata4505">
    <rdf:RDF>
      <cc:Work
         rdf:about="">
        <dc:format>image/svg+xml</dc:format>
        <dc:type
           rdf:resource="http://purl.org/dc/dcmitype/StillImage" />
        <dc:title></dc:title>
      </cc:Work>
    </rdf:RDF>
  </metadata>
  <g
     inkscape:label="Layer 1"
     inkscape:groupmode="layer"
     id="layer1"
     transform="translate(48.433993,-9.1789706)">
    <path
       style="fill:#000000;stroke-width:0.35277778"
       d="m 3.814114,58.122007 c -1.4470002,-0.72282 -1.6394701,-1.39717 -0.8647501,-3.02978 0.49274,-1.03837 0.51795,-1.54103 0.17317,-3.45354 -0.7126101,-3.95289 -0.6294301,-3.8722 -3.78729993,-3.67444 -1.50535997,0.0943 -7.69795917,0.27511 -13.76132797,0.40187 -9.17434,0.19179 -11.02521,0.14991 -11.0297,-0.24958 -0.004,-0.35146 -0.0768,-0.36777 -0.27191,-0.0609 -0.19014,0.29902 -2.56504,0.44514 -8.2876,0.5099 l -8.0211,0.0908 -1.34671,-1.31503 -1.34671,-1.31502 0.0738,-3.07544 c 0.0836,-3.4828 0.43454,-4.65501 1.62795,-5.43696 0.87429,-0.57286 3.04949,-1.1898 3.63392,-1.03068 1.25459,0.34158 41.3638078,-0.0977 41.7230678,-0.457 0.3856301,-0.38563 0.7639001,-4.24269 0.4359701,-4.44537 -0.17625,-0.10892 -0.3981901,-0.82479 -0.4932001,-1.59082 -0.1352599,-1.0905 -0.01,-1.56621 0.5779701,-2.19188 1.7710101,-1.88516 5.3250801,-0.0187 4.4530701,2.33854 -0.33142,0.8959 -0.31035,1.13496 0.40331,4.57736 l 0.46583,2.24696 4.090951,-0.21878 c 5.104823,-0.27299 15.501733,-0.70732 27.021518,-1.1288 3.298472,-0.12069 6.108319,-0.28712 6.244106,-0.36985 0.135784,-0.0827 0.413597,0.1611 0.617361,0.54183 0.493247,0.92164 0.468563,1.09141 -0.15869,1.09141 -0.291041,0 -0.531597,-0.19844 -0.534567,-0.44097 -0.0036,-0.29398 -0.119394,-0.26459 -0.347377,0.0882 -0.292252,0.45223 -0.342759,0.4394 -0.347377,-0.0882 -0.0028,-0.33955 -0.15917,-0.61736 -0.347108,-0.61736 -0.187936,0 -0.250328,0.23812 -0.138646,0.52916 0.280526,0.73103 -0.561915,0.66835 -1.185248,-0.0882 -0.392123,-0.47592 -0.470669,-0.4928 -0.342822,-0.0737 0.113975,0.37366 -0.09766,0.56548 -0.676759,0.61341 -0.463426,0.0384 -0.842595,-0.0872 -0.842595,-0.27909 0,-0.19185 -0.277813,-0.3464 -0.617361,-0.34342 -0.527597,0.005 -0.540421,0.0551 -0.08819,0.34737 0.427906,0.27653 0.377275,0.34301 -0.264583,0.34738 -0.436563,0.003 -0.79375,-0.15335 -0.79375,-0.34738 0,-0.19403 -0.16812,-0.35278 -0.373599,-0.35278 -0.205479,0 -0.275484,0.15875 -0.155568,0.35278 0.119917,0.19403 -0.118208,0.35278 -0.529166,0.35278 -0.503866,0 -0.660919,-0.14361 -0.482269,-0.44097 0.205204,-0.34156 0.150252,-0.34864 -0.243762,-0.0314 -0.330288,0.26595 -3.106857,0.48019 -7.917024,0.61089 -15.780263,0.42876 -22.062135,0.67108 -21.888865,0.84434 0.0991,0.0991 1.49059,0.14553 3.09223,0.10319 1.601651,-0.0423 2.830752,0.004 2.731332,0.10377 -0.0994,0.0994 -1.526011,0.20976 -3.170222,0.2452 -3.36549,0.0726 -4.39891,0.39823 -2.28392,0.71976 l 1.4111203,0.21452 -1.3229203,0.0501 c -0.7276,0.0275 -1.32292,0.19497 -1.32292,0.37208 0,0.18203 1.30349,0.24927 2.99861,0.15468 1.984851,-0.11076 2.998611,-0.0407 2.998611,0.20715 0,0.23476 -1.11885,0.37449 -2.998611,0.37449 -1.64923,0 -2.99871,0.11906 -2.99883,0.26458 -1.3e-4,0.14552 4.956331,0.21614 11.014347,0.15694 6.058019,-0.0592 10.939684,-0.0409 10.848142,0.0406 -0.09154,0.0815 -5.001659,0.25562 -10.911371,0.38684 -5.909707,0.13122 -10.817728,0.31138 -10.906708,0.40036 -0.18536,0.18536 3.15911,0.25335 8.157902,0.16585 2.264048,-0.0396 3.439574,0.07 3.439574,0.32064 0,0.24953 -1.338034,0.38084 -3.880554,0.38084 h -3.880552 v 1.91575 c 0,1.70621 0.0868,1.93246 0.793751,2.06862 l 0.79375,0.15288 -0.79375,0.048 c -0.884541,0.0535 -1.110981,0.7536 -0.24376,0.7536 0.30249,0 0.45865,0.14778 0.34702,0.3284 -0.35665,0.57708 0.23624,0.66565 6.16503,0.92105 3.197888,0.13776 5.933404,0.31923 6.078925,0.40328 0.145521,0.084 0.264584,0.009 0.264584,-0.16689 0,-0.17583 -0.357188,-0.49099 -0.79375,-0.70037 -0.607,-0.29111 -0.08825,-0.33606 2.204861,-0.19102 2.880328,0.18218 4.308545,0.46389 2.351852,0.46389 -0.517408,0 -0.940741,0.14853 -0.940741,0.33008 0,0.40922 4.172161,0.54257 19.860142,0.63475 6.751482,0.0397 12.433747,0.16997 12.627256,0.28957 0.193513,0.1196 0.543324,0.062 0.777356,-0.12799 0.234037,-0.18998 1.854271,-0.44147 3.600521,-0.55884 4.469747,-0.30044 8.835629,-0.82833 13.581943,-1.64222 1.067153,-0.183 2.864743,-0.41077 3.994647,-0.50617 1.129902,-0.0954 2.201464,-0.26435 2.38125,-0.37547 0.179783,-0.11111 0.326881,0.0315 0.326881,0.31696 0,0.47773 -1.655082,0.93044 -3.175,0.86845 -0.928451,-0.0379 -4.019977,0.41186 -5.115278,0.74412 -0.582083,0.17658 -2.248958,0.42547 -3.704166,0.55308 -1.455208,0.12762 -3.201458,0.29606 -3.880555,0.37432 -6.158516,0.70974 -11.257759,0.89138 -23.457742,0.83556 -7.762197,-0.0355 -16.097464,-0.1985 -18.522811,-0.36221 -2.425347,-0.16371 -6.949722,-0.39521 -10.054164,-0.51445 -5.402332,-0.20751 -5.675272,-0.25329 -6.3632517,-1.06734 -1.3643303,-1.61436 -1.7577603,-1.16064 -2.2450303,2.58905 -0.24584,1.89177 -0.47329,4.05342 -0.50545,4.80367 -0.0457,1.06578 -0.29367,1.54585 -1.1339,2.19523 -1.05172,0.81283 -1.10222,0.81775 -2.29202,0.22341 z m 2.48549,-2.94398 c 0,-0.17027 -0.23813,-0.30958 -0.52917,-0.30958 -0.30416,0 -0.52917,0.31838 -0.52917,0.74875 0,0.62556 0.0871,0.67649 0.52917,0.30958 0.29104,-0.24154 0.52917,-0.57848 0.52917,-0.74875 z m -0.35278,-1.19153 c 0,-0.29104 -0.15377,-0.52917 -0.34171,-0.52917 -0.18793,0 -0.25033,0.23813 -0.13864,0.52917 0.11168,0.29104 0.26545,0.52917 0.3417,0.52917 0.0763,0 0.13865,-0.23813 0.13865,-0.52917 z m 0.60583,-4.14049 c -1.0555,-2.87626 -1.17496,-14.38502 -0.13855,-13.34862 0.72075,0.72076 0.80571,0.37061 0.46433,-1.91367 -0.64168,-4.29372 -1.20384,-2.63186 -1.52033,4.49447 -0.16373,3.6868 -0.0615,6.00934 0.42719,9.70139 0.5582,4.21748 0.68685,4.70438 0.98086,3.71226 0.25144,-0.84842 0.19657,-1.52839 -0.2135,-2.64583 z m -1.49937,-0.70635 c -0.13981,-1.01653 -0.38135,-4.07247 -0.53675,-6.79097 l -0.28256,-4.94274 0.1625,5.64444 c 0.15716,5.4591 0.3887,7.9375 0.74155,7.9375 0.0932,0 0.0551,-0.8317 -0.0847,-1.84823 z m -0.97362,-1.41085 c -0.0844,-0.43883 -0.15663,-0.16286 -0.16054,0.61325 -0.004,0.77611 0.0651,1.13515 0.15342,0.79786 0.0883,-0.33729 0.0915,-0.97229 0.007,-1.41111 z m 21.622716,1.14241 c 0,-0.19402 -0.247495,-0.35277 -0.549988,-0.35277 -0.302493,0 -0.451873,0.15875 -0.331957,0.35277 0.119916,0.19403 0.367411,0.35278 0.549988,0.35278 0.182576,0 0.331957,-0.15875 0.331957,-0.35278 z m -51.617344,-2.18281 c -0.11261,-0.28142 -0.19621,-0.19783 -0.21314,0.21314 -0.0153,0.37188 0.0681,0.58024 0.18529,0.46302 0.11723,-0.11723 0.12976,-0.4215 0.0279,-0.67616 z m 24.694438,0 c -0.11261,-0.28142 -0.19621,-0.19783 -0.21313,0.21314 -0.0153,0.37188 0.0681,0.58024 0.18528,0.46302 0.11723,-0.11723 0.12976,-0.4215 0.0278,-0.67616 z m -29.986098,-1.05833 c -0.11262,-0.28142 -0.19621,-0.19783 -0.21314,0.21313 -0.0153,0.37189 0.0681,0.58025 0.18528,0.46303 0.11723,-0.11723 0.12976,-0.4215 0.0279,-0.67616 z m 0.94058,0.25383 c 0.1093,-0.28483 0.0469,-0.6117 -0.13865,-0.72638 -0.18555,-0.11467 -0.33737,0.11837 -0.33737,0.51787 0,0.85181 0.19619,0.93774 0.47602,0.20851 z m 10.3483,-0.25383 c -0.11261,-0.28142 -0.19621,-0.19783 -0.21313,0.21313 -0.0153,0.37189 0.0681,0.58025 0.18528,0.46303 0.11723,-0.11723 0.12976,-0.4215 0.0279,-0.67616 z m 23.655208,-4.60816 c -0.0713,-1.01865 -0.1295701,-0.18521 -0.1295701,1.85208 0,2.03729 0.0583,2.87073 0.1295701,1.85208 0.0713,-1.01864 0.0713,-2.68552 0,-3.70416 z m 5.49631,4.80998 c -0.17387,-0.4531 -0.0632,-0.52052 0.5402403,-0.329 0.4531497,0.14382 0.7589197,0.0891 0.7589197,-0.13568 0,-0.2071 -0.24749,-0.37655 -0.5499897,-0.37655 -0.30249,0 -0.45187,-0.15875 -0.33195,-0.35278 0.12009,-0.19431 -0.14787,-0.36392 -0.5965403,-0.37757 -0.76438,-0.0233 -0.7711,-0.0423 -0.10902,-0.30864 0.38806,-0.15611 0.8246203,-0.21496 0.9701403,-0.13077 0.1455197,0.0842 0.2645797,-0.0151 0.2645797,-0.22053 0,-0.42118 -2.08944,-0.50222 -2.67156,-0.10362 -0.50399,0.34511 -0.91425,1.49391 -0.53351,1.49391 0.16531,0 0.38359,0.3175 0.48507,0.70555 0.12394,0.47397 0.48119,0.70556 1.08841,0.70556 0.68722,0 0.85147,-0.1366 0.68521,-0.56988 z m -36.349228,-0.47548 c 0.0996,-0.38093 -0.0449,-0.88016 -0.32113,-1.10941 -0.4184,-0.34724 -0.48813,-0.23162 -0.41771,0.69258 0.0952,1.24987 0.46625,1.45918 0.73884,0.41683 z m 10.60774,-1.61177 c -0.27983,-0.72923 -0.47601,-0.6433 -0.47601,0.2085 0,0.39951 0.15181,0.63255 0.33737,0.51787 0.18555,-0.11468 0.24794,-0.44154 0.13864,-0.72637 z m 1.64065,0.48167 c 0,-0.16169 -0.14938,-0.29399 -0.33196,-0.29399 -0.18257,0 -0.41371,0.1323 -0.51364,0.29399 -0.0999,0.16169 0.0494,0.29398 0.33195,0.29398 0.28251,0 0.51365,-0.13229 0.51365,-0.29398 z m 1.18591,-0.47037 c 0.11168,-0.29105 0.0493,-0.52917 -0.13865,-0.52917 -0.18793,0 -0.3417,0.23812 -0.3417,0.52917 0,0.29104 0.0624,0.52916 0.13864,0.52916 0.0763,0 0.23002,-0.23812 0.34171,-0.52916 z m -11.76924,-0.52917 c 0,-0.38806 -0.14389,-0.70556 -0.31975,-0.70556 -0.17586,0 -0.23672,0.3175 -0.13525,0.70556 0.10148,0.38805 0.24537,0.70555 0.31976,0.70555 0.0744,0 0.13524,-0.3175 0.13524,-0.70555 z m 5.64444,0.35278 c 0,-0.19403 -0.27781,-0.35035 -0.61736,-0.34738 -0.52759,0.005 -0.54042,0.0551 -0.0882,0.34738 0.66576,0.43025 0.70555,0.43025 0.70555,0 z m 8.64056,0.004 c 0.12359,-0.19998 -0.018,-0.25912 -0.33196,-0.13865 -0.61116,0.23453 -0.72298,0.48738 -0.21553,0.48738 0.18258,0 0.42895,-0.15693 0.54749,-0.34873 z m -24.16278,-0.35682 c 0,-0.19403 -0.16812,-0.35278 -0.3736,-0.35278 -0.20547,0 -0.27548,0.15875 -0.15556,0.35278 0.11991,0.19403 0.28803,0.35278 0.37359,0.35278 0.0856,0 0.15557,-0.15875 0.15557,-0.35278 z m 30.691668,-0.17639 c 0,-0.29104 -0.15875,-0.52917 -0.35278,-0.52917 -0.19403,0 -0.35278,0.23813 -0.35278,0.52917 0,0.29104 0.15875,0.52917 0.35278,0.52917 0.19403,0 0.35278,-0.23813 0.35278,-0.52917 z m -22.224998,-0.13865 c 0,-0.17326 -0.23813,-0.40641 -0.52917,-0.51809 -0.32234,-0.12369 -0.52916,-5.6e-4 -0.52916,0.31503 0,0.28496 0.23812,0.5181 0.52916,0.5181 0.29104,0 0.52917,-0.14177 0.52917,-0.31504 z m 11.88265,-0.45666 c -0.11261,-0.28142 -0.19621,-0.19783 -0.21313,0.21313 -0.0153,0.37189 0.0681,0.58025 0.18528,0.46303 0.11723,-0.11723 0.12976,-0.4215 0.0279,-0.67616 z m 6.9758888,0.4433 c 0.11163,-0.18062 0.0416,-0.42812 -0.15557,-0.54999 -0.19719,-0.12187 -0.3585297,0.0259 -0.3585297,0.3284 0,0.61967 0.2116897,0.71091 0.5140997,0.22159 z m -10.3918788,-0.72993 c 0,-0.19403 -0.24749,-0.35278 -0.54998,-0.35278 -0.30249,0 -0.45188,0.15875 -0.33196,0.35278 0.11992,0.19402 0.36741,0.35277 0.54999,0.35277 0.18257,0 0.33195,-0.15875 0.33195,-0.35277 z m -17.81527,-0.35278 c 0.11991,-0.19403 0.0499,-0.35278 -0.15557,-0.35278 -0.20548,0 -0.3736,0.15875 -0.3736,0.35278 0,0.19403 0.07,0.35278 0.15557,0.35278 0.0856,0 0.25368,-0.15875 0.3736,-0.35278 z m 10.75972,0 c 0,-0.19403 -0.14938,-0.35278 -0.33196,-0.35278 -0.18258,0 -0.43007,0.15875 -0.54998,0.35278 -0.11992,0.19403 0.0295,0.35278 0.33195,0.35278 0.3025,0 0.54999,-0.15875 0.54999,-0.35278 z m 15.21911,-0.34503 c 0.8458094,-0.3838 2.0537688,-0.7013 2.6843585,-0.70556 0.6305897,-0.004 1.1465294,-0.14133 1.1465294,-0.3046 0,-0.56537 -5.1195679,0.71272 -5.8730479,1.46619 -0.45603,0.45604 0.50519,0.24139 2.04216,-0.45603 z m -4.80283,-0.2924 c -0.10862,-0.10861 -0.39328,-2.2e-4 -0.63258,0.24087 -0.34581,0.34841 -0.30529,0.38894 0.19749,0.19749 0.34791,-0.13248 0.5437,-0.32974 0.43509,-0.43836 z m -7.38132,-0.009 c -0.17185,-0.27807 -2.32941,-0.13208 -2.32941,0.15761 0,0.075 0.565,0.13635 1.25555,0.13635 0.69054,0 1.17378,-0.13228 1.07386,-0.29396 z m 18.036158,0.0808 c -0.11723,-0.11722 -0.4215,-0.12976 -0.67616,-0.0279 -0.28142,0.11262 -0.19783,0.19621 0.21314,0.21314 0.37189,0.0153 0.58025,-0.0681 0.46302,-0.18529 z m -35.736688,-0.40422 c -0.1756,-0.14552 -0.43776,-0.42333 -0.58256,-0.61736 -0.15025,-0.20132 -0.26561,-0.0877 -0.26869,0.26458 -0.003,0.34318 0.25572,0.61736 0.58256,0.61736 0.32338,0 0.44429,-0.11906 0.26869,-0.26458 z m 4.25863,-0.44097 c 0.11991,-0.19403 0.0499,-0.35278 -0.15557,-0.35278 -0.20548,0 -0.3736,0.15875 -0.3736,0.35278 0,0.19402 0.07,0.35277 0.15557,0.35277 0.0856,0 0.25368,-0.15875 0.3736,-0.35277 z m 15.45183,-0.12019 c 0.0998,-0.26013 0.0399,-0.69669 -0.13324,-0.97014 -0.22906,-0.36183 -0.31621,-0.23308 -0.32014,0.47297 -0.006,1.05347 0.16712,1.24316 0.45338,0.49717 z m -12.90154,-0.0929 c -0.11723,-0.11722 -0.4215,-0.12976 -0.67616,-0.0279 -0.28142,0.11261 -0.19783,0.19621 0.21313,0.21313 0.37189,0.0153 0.58025,-0.0681 0.46303,-0.18528 z m 1.15387,-0.13964 c 0,-0.19403 -0.15875,-0.35278 -0.35278,-0.35278 -0.19402,0 -0.35277,0.15875 -0.35277,0.35278 0,0.19403 0.15875,0.35278 0.35277,0.35278 0.19403,0 0.35278,-0.15875 0.35278,-0.35278 z m 4.7625,0 c -0.11991,-0.19403 -0.37678,-0.35278 -0.5708,-0.35278 -0.19403,0 -0.25467,0.15875 -0.13475,0.35278 0.11991,0.19403 0.37677,0.35278 0.5708,0.35278 0.19403,0 0.25467,-0.15875 0.13475,-0.35278 z m 15.92194,-0.70156 2.0697294,-0.26426 -2.7132094,-0.0463 c -1.49226,-0.0254 -2.81132,0.1125 -2.93124,0.30652 -0.11991,0.19403 0.0295,0.35278 0.33196,0.35278 0.30249,0 0.55242,0.19844 0.55539,0.44097 0.004,0.32132 0.0885,0.30985 0.31152,-0.0423 0.16837,-0.26578 1.2375,-0.60215 2.37585,-0.74749 z m -12.52677,-0.0981 c -0.34841,-0.34582 -0.38893,-0.3053 -0.19749,0.19748 0.13248,0.34792 0.32974,0.54371 0.43836,0.43509 0.10861,-0.10861 2.2e-4,-0.39327 -0.24087,-0.63257 z m 24.65065783,0.66644 c 0,-0.0733 -0.27780992,-0.35107 -0.61735989,-0.61737 -0.55951997,-0.43881 -0.57199997,-0.42633 -0.13319,0.1332 0.46085997,0.58764 0.75054989,0.77451 0.75054989,0.48417 z M -35.546014,38.640937 c 2.99943,-0.097 5.56537,-0.28888 5.70209,-0.42637 0.13672,-0.13749 -2.25092,-0.18086 -5.30586,-0.0964 -5.38128,0.14882 -6.53616,0.38954 -6.52299,1.35968 0.003,0.21878 0.15567,0.15966 0.33933,-0.13139 0.26484,-0.41971 1.46198,-0.56565 5.78743,-0.70555 z m 1.62895,0.70555 c 0,-0.19402 -0.07,-0.35277 -0.15557,-0.35277 -0.0856,0 -0.25368,0.15875 -0.37359,0.35277 -0.11992,0.19403 -0.0499,0.35278 0.15557,0.35278 0.20547,0 0.37359,-0.15875 0.37359,-0.35278 z m 31.485418,0.0187 c 0.14552,-0.0103 0.26458,-0.17662 0.26458,-0.36959 0,-0.3194 -0.66241,-0.28489 -3.48286,0.18144 -1.7806495,0.2944 -1.1732201,0.58544 0.83703,0.40104 1.16416,-0.10679 2.23573,-0.20259 2.38125,-0.21289 z m -34.918288,-0.25014 c -0.23884,-0.0966 -0.71509,-0.10251 -1.05833,-0.0131 -0.34324,0.0894 -0.14782,0.16851 0.43426,0.1757 0.58208,0.007 0.86292,-0.066 0.62407,-0.16263 z m 21.32899,0.0183 c -0.11722,-0.11723 -0.42149,-0.12976 -0.67615,-0.0279 -0.28143,0.11262 -0.19783,0.19621 0.21313,0.21314 0.37189,0.0153 0.58025,-0.0681 0.46302,-0.18528 z m -12.83549,-0.68403 c -0.1149,-0.29941 -0.28456,-0.46872 -0.37703,-0.37624 -0.0925,0.0925 -0.0635,0.33744 0.0644,0.54438 0.34785,0.56284 0.55117,0.4535 0.31263,-0.16814 z m 7.51641,0.0435 c 0.31084,-0.11928 0.75179,-0.062 0.97989,0.12731 0.43313,0.35947 5.49299,0.0878 5.49318,-0.29498 1.5e-4,-0.29909 -4.02444,-0.20784 -4.5268,0.10263 -0.22671,0.14012 -0.4122,0.0743 -0.4122,-0.14617 0,-0.46601 -7.66336,-0.23214 -8.14456,0.24855 -0.328,0.32765 5.74878,0.29333 6.61049,-0.0373 z m 14.0424382,-0.11651 c 0.10026,-0.26083 -0.1141997,-0.44097 -0.5249897,-0.44097 -0.3819697,0 -0.7070194,-0.19844 -0.7223394,-0.44097 -0.0223,-0.35278 -0.0634,-0.35278 -0.20579,0 -0.11828,0.29312 -0.9960294,0.44097 -2.6179791,0.44097 -1.34202,0 -2.44004,0.14559 -2.44004,0.32353 0,0.18154 1.19997,0.25631 2.73402,0.17038 1.7371094,-0.0973 2.5535191,-0.0347 2.2389791,0.17169 -0.3614897,0.23719 -0.2436397,0.3102 0.4367997,0.27059 0.51252,-0.0298 1.0081297,-0.25268 1.1013394,-0.49522 z m 6.44608977,0.40423 c -0.11723,-0.11723 -0.42149997,-0.12976 -0.67615997,-0.0279 -0.28142,0.11261 -0.19783,0.19621 0.21314,0.21313 0.37187997,0.0153 0.58023997,-0.0681 0.46301997,-0.18528 z m 2.03581983,-0.88354 c 0.4324901,-0.17674 0.1253,-0.20766 -0.79374989,-0.0799 -1.00081994,0.13912 -1.49930991,0.0761 -1.49930991,-0.18945 0,-0.21882 -0.27781,-0.39543 -0.61736,-0.39246 -0.53056,0.005 -0.54296,0.056 -0.0882,0.36532 0.37607,0.25579 -0.26207,0.33078 -2.20568,0.25918 -2.5015601,-0.0921 -3.4113795,0.1192 -2.2922401,0.53247 0.6480101,0.2393 6.67313001,-0.15867 7.4965299,-0.49516 z m -15.9631878,-0.54807 c -0.24254,-0.0979 -0.63941,-0.0979 -0.88195,0 -0.24253,0.0979 -0.0441,0.17793 0.44097,0.17793 0.48507,0 0.68351,-0.0801 0.44098,-0.17793 z m 3.53449,0.002 c -0.23884,-0.0966 -0.71509,-0.10252 -1.05834,-0.0131 -0.34324,0.0894 -0.14782,0.16851 0.43426,0.1757 0.58209,0.007 0.86292,-0.066 0.62408,-0.16263 z m 6.696058,-0.002 c -0.24253,-0.0979 -0.63941,-0.0979 -0.88194,0 -0.24254,0.0979 -0.0441,0.17793 0.44097,0.17793 0.48507,0 0.68351,-0.0801 0.44097,-0.17793 z m 9.53983,-3.29414 c 0.12224,-1.44886 0.0893,-1.90343 -0.0894,-1.23473 -0.15559,0.58209 -0.30168,1.58364 -0.32463,2.22569 -0.023,0.64204 -0.18569,1.07838 -0.36162,0.96965 -0.17593,-0.10873 -0.23206,0.13812 -0.12473,0.54856 0.30472,1.16523 0.67822,0.12437 0.90041,-2.50917 z m 0.79019,-4.26885 c 0.12937,-0.40759 0.0633,-0.91294 -0.14674,-1.12301 -0.47454,-0.47455 -0.62502,-0.33016 -0.93243,0.89466 -0.18655,0.74325 -0.11648,0.96942 0.30033,0.96942 0.299,0 0.64948,-0.33348 0.77884,-0.74107 z m 25.56512,18.75115 c -1.301736,-0.14716 -1.650034,-0.27336 -1.058334,-0.38347 1.317163,-0.2451 3.907166,0.0366 3.682266,0.40049 -0.107872,0.17454 -0.305823,0.29147 -0.439892,0.25984 -0.13407,-0.0316 -1.116888,-0.15621 -2.18404,-0.27686 z m 3.478625,-0.0563 c -0.306945,-0.19447 0.145358,-0.30608 1.254477,-0.30953 0.953968,-0.003 1.617719,0.11137 1.474996,0.25409 -0.375289,0.37529 -2.167206,0.41169 -2.729473,0.0554 z m 3.224152,0.017 c 0,-0.20548 0.15875,-0.27549 0.352778,-0.15557 0.194027,0.11991 0.352777,0.28803 0.352777,0.37359 0,0.0856 -0.15875,0.15557 -0.352777,0.15557 -0.194028,0 -0.352778,-0.16812 -0.352778,-0.37359 z m 1.18734,0.12699 c 0.341863,-0.34186 12.218215,-0.37041 12.218215,-0.0294 0,0.15179 -2.804584,0.27597 -6.232409,0.27597 -3.427821,0 -6.121434,-0.11097 -5.985806,-0.2466 z m 12.570992,-0.11858 c 0,-0.36422 6.215965,-0.60238 7.408333,-0.28384 0.5649,0.1509 -0.0058,0.26016 -1.5875,0.30391 -1.358194,0.0376 -3.223506,0.11375 -4.145138,0.16927 -0.921632,0.0555 -1.675695,-0.0297 -1.675695,-0.18934 z m 10.583333,-0.41764 c 0,-0.15153 0.357187,-0.27615 0.79375,-0.27694 1.456104,-0.003 12.061249,-1.0751 13.581943,-1.37351 0.824618,-0.16182 1.499306,-0.18236 1.499306,-0.0456 0,0.13671 -1.309688,0.44468 -2.910417,0.68439 -4.375051,0.65514 -12.964582,1.32544 -12.964582,1.01171 z m -45.59241,-0.17224 c 0.438823,-0.0844 1.073822,-0.0812 1.41111,0.007 0.337287,0.0883 -0.02177,0.15734 -0.797864,0.15342 -0.776106,-0.004 -1.052076,-0.0762 -0.613246,-0.16054 z m 3.00121,0.005 c 0.343242,-0.0894 0.819492,-0.0836 1.058333,0.0131 0.238841,0.0966 -0.04199,0.16981 -0.624075,0.16262 -0.582083,-0.007 -0.777501,-0.0863 -0.434258,-0.1757 z m 1.955612,0.003 c 0.25466,-0.10191 0.558931,-0.0894 0.676159,0.0279 0.117225,0.11723 -0.09114,0.2006 -0.463021,0.18529 -0.410968,-0.0169 -0.494559,-0.10052 -0.213138,-0.21314 z m 0.595313,-0.85171 c -1.180031,-0.11749 0.890418,-0.22297 4.678923,-0.23837 4.283904,-0.0174 6.717816,0.0982 6.585165,0.31285 -0.218574,0.35366 -7.443822,0.30588 -11.264088,-0.0745 z m 13.066722,0.0569 c -0.23054,-0.37302 6.375202,-0.2774 6.750318,0.0977 0.127875,0.12787 -1.292719,0.23249 -3.156871,0.23249 -1.864148,0 -3.4812,-0.14859 -3.593447,-0.33021 z m 7.482582,0.0966 c 0.242535,-0.0979 0.63941,-0.0979 0.881944,0 0.242535,0.0979 0.0441,0.17794 -0.440972,0.17794 -0.485069,0 -0.683507,-0.0801 -0.440972,-0.17794 z m 2.557639,-0.11914 c 0,-0.40384 0.502867,-0.40384 1.763889,0 0.7871,0.25208 0.739676,0.28623 -0.440973,0.31762 -0.727604,0.0193 -1.322916,-0.12359 -1.322916,-0.31762 z m -30.691668,-0.35277 c 0,-0.19403 0.15875,-0.35278 0.35278,-0.35278 0.19403,0 0.35278,0.15875 0.35278,0.35278 0,0.19402 -0.15875,0.35277 -0.35278,0.35277 -0.19403,0 -0.35278,-0.15875 -0.35278,-0.35277 z m 1.76389,0 c 0,-0.19403 0.15875,-0.35278 0.35278,-0.35278 0.19403,0 0.352778,0.15875 0.352778,0.35278 0,0.19402 -0.158748,0.35277 -0.352778,0.35277 -0.19403,0 -0.35278,-0.15875 -0.35278,-0.35277 z m 1.322919,0.11914 c 0.242534,-0.0979 0.639409,-0.0979 0.881944,0 0.242535,0.0979 0.0441,0.17793 -0.440972,0.17793 -0.48507,0 -0.683507,-0.0801 -0.440972,-0.17793 z m 66.763189,-0.0644 c 0,-0.41861 2.104965,-1.04021 6.777835,-2.00154 0.332323,-0.0684 1.126073,-0.36083 1.763888,-0.64992 3.719269,-1.68578 5.270916,-2.34217 5.536646,-2.34217 0.164522,0 0.484159,-0.22295 0.710311,-0.49545 0.347629,-0.41887 0.204359,-0.44598 -0.926945,-0.1754 -0.735968,0.17602 -3.639999,0.30815 -6.453402,0.29362 -13.693859,-0.0708 -17.991439,-0.1755 -17.991549,-0.43853 -6.3e-5,-0.15762 1.733187,-0.237 3.85167,-0.17639 3.051199,0.0873 3.775463,0.0186 3.484583,-0.33077 -0.201965,-0.24253 -1.057162,-0.44097 -1.900438,-0.44097 -1.217937,0 -1.491474,-0.10882 -1.330173,-0.52917 0.260491,-0.67882 -0.205486,-0.68579 -0.715479,-0.0107 -0.316199,0.41856 -2.023086,0.56378 -8.858334,0.75366 -4.656667,0.12935 -8.387292,0.15191 -8.290278,0.0501 0.09701,-0.10178 3.827639,-0.29872 8.290278,-0.43762 4.462638,-0.13891 8.188666,-0.32404 8.28006,-0.41139 0.303213,-0.2898 -0.857063,-0.81513 -1.812469,-0.82061 -0.517405,-0.003 -0.995042,-0.16831 -1.06141,-0.36741 -0.06636,-0.1991 -0.690823,-0.41317 -1.387679,-0.4757 -1.356653,-0.12173 -2.078225,-0.4365 -2.078225,-0.90658 0,-0.16035 1.230313,0.0641 2.734028,0.49884 4.799259,1.38743 6.171286,1.65347 6.553919,1.27083 0.238192,-0.23819 0.190496,-0.40621 -0.144928,-0.51054 -10.167207,-3.16245 -11.335085,-3.44385 -13.491876,-3.25088 -2.043035,0.18279 -5.44492,0.37345 -13.218021,0.74081 -2.351215,0.11112 -3.436458,0.31206 -3.834359,0.70996 -0.305238,0.30524 -0.650544,0.45941 -0.767349,0.34261 -0.116801,-0.11681 0.02117,-0.36006 0.306582,-0.54057 0.371916,-0.2352 0.127473,-0.32972 -0.862764,-0.33359 -0.75994,-0.003 -1.304854,-0.0823 -1.21092,-0.17619 0.188486,-0.18849 2.8543,-0.44665 7.178745,-0.6952 8.438366,-0.485 14.017017,-0.90712 14.300058,-1.08205 0.175725,-0.10861 0.783734,0.0426 1.351135,0.33602 0.567401,0.29341 1.643627,0.68163 2.391611,0.86271 0.747984,0.18108 3.264972,0.91734 5.593305,1.63613 4.368454,1.3486 9.137671,2.41882 12.523611,2.81032 3.164402,0.36588 9.550244,0.19698 11.729869,-0.31025 2.21876,-0.51632 2.5037,-0.26585 1.13773,1.00009 -0.9004,0.83446 -5.950026,3.42406 -7.575933,3.88517 -0.48507,0.13757 -1.94244,0.64413 -3.238602,1.12571 -1.296162,0.48157 -2.804287,0.93437 -3.351389,1.00622 -0.547102,0.0719 -0.994731,0.16183 -0.994731,0.19997 0,0.0381 -0.3175,0.11844 -0.705555,0.17848 -0.388056,0.06 -1.062743,0.21704 -1.499306,0.3489 -0.480564,0.14515 -0.79375,0.0897 -0.79375,-0.14058 z m -5.644444,-0.76036 c 0.291042,-0.18422 1.084792,-0.32262 1.763889,-0.30754 1.370358,0.0304 9.688815,-1.68311 10.638736,-2.19149 0.6336,-0.3391 2.31218,-0.45645 1.995223,-0.1395 -0.212104,0.21211 -6.325146,1.80199 -8.929793,2.32246 -2.610657,0.52168 -6.112689,0.7241 -5.468055,0.31607 z m -62.618054,-0.35272 c -0.11991,-0.19402 0.0295,-0.35277 0.33196,-0.35277 0.30249,0 0.549988,0.15875 0.549988,0.35277 0,0.19403 -0.149378,0.35278 -0.331958,0.35278 -0.18258,0 -0.43007,-0.15875 -0.54999,-0.35278 z m 2.7625,0.11852 c 0.263811,-0.2638 3.079037,-0.21541 3.352073,0.0576 0.09715,0.0971 -0.670034,0.17663 -1.704848,0.17663 -1.034814,0 -1.776067,-0.10541 -1.647225,-0.23426 z m 4.73403,6.4e-4 c 0.242535,-0.0979 0.63941,-0.0979 0.881945,0 0.242534,0.0979 0.0441,0.17793 -0.440972,0.17793 -0.48507,0 -0.683507,-0.0801 -0.440973,-0.17793 z m -4.545287,-3.68366 c -0.280889,-0.17795 2.374508,-0.30749 6.367974,-0.31063 3.76737,-0.003 6.77377,0.0706 6.68088,0.16348 -0.315824,0.31583 -12.564575,0.45395 -13.048854,0.14715 z m 15.745981,0.0108 c -2.907326,-0.23816 -1.916687,-0.31539 5.55625,-0.43315 2.861909,-0.0451 5.203472,0.0304 5.203472,0.16778 0,0.33228 -7.641982,0.52076 -10.759722,0.26537 z m 11.248029,-0.26077 c 0.128729,-0.20829 2.295081,-0.36929 5.245358,-0.38983 7.952679,-0.0554 20.471929,-0.39551 21.342027,-0.57987 0.436563,-0.0925 0.79375,-0.006 0.79375,0.19131 0,0.19773 -0.754062,0.37632 -1.675694,0.39689 -0.921632,0.0206 -2.23132,0.0782 -2.910417,0.12805 -4.832385,0.35482 -22.982394,0.55662 -22.795024,0.25345 z m -15.026564,-1.03322 c 1.220275,-0.0691 3.125275,-0.0685 4.233333,0.001 1.108053,0.0698 0.109646,0.1263 -2.218687,0.12561 -2.328333,-7.1e-4 -3.234926,-0.0578 -2.014646,-0.12688 z m 6.514122,0.0542 c 0.348858,-0.34886 3.790801,-0.44879 3.790801,-0.11006 0,0.17457 -0.899583,0.3174 -1.999075,0.3174 -1.099488,0 -1.905765,-0.0933 -1.791726,-0.20734 z m 5.03248,-0.15669 c 0.25031,-0.40501 3.344432,-0.46591 3.344432,-0.0658 0,0.15164 -0.799987,0.30532 -1.777753,0.34153 -1.071894,0.0397 -1.693947,-0.0698 -1.566679,-0.2757 z m 3.938277,-0.005 c 0.372918,-0.35624 12.81196,-0.59709 12.811816,-0.24807 -5.7e-5,0.14552 -2.579793,0.28484 -5.732745,0.30961 -3.152951,0.0248 -6.100409,0.083 -6.549904,0.12935 -0.449499,0.0464 -0.687624,-0.0395 -0.529167,-0.19089 z m -33.402178,-0.68904 c 0,-0.19403 0.15875,-0.35278 0.35278,-0.35278 0.19403,0 0.35278,0.15875 0.35278,0.35278 0,0.19403 -0.15875,0.35278 -0.35278,0.35278 -0.19403,0 -0.35278,-0.15875 -0.35278,-0.35278 z m 1.05834,0 c 0,-0.19403 0.15875,-0.35278 0.35277,-0.35278 0.19403,0 0.35278,0.15875 0.35278,0.35278 0,0.19403 -0.15875,0.35278 -0.35278,0.35278 -0.19402,0 -0.35277,-0.15875 -0.35277,-0.35278 z m 1.05833,-0.0133 c 0,-0.18671 0.89958,-0.33948 1.999074,-0.33948 1.099488,0 1.903843,0.0952 1.787447,0.21163 -0.368787,0.36878 -3.786521,0.48419 -3.786521,0.12785 z m 4.409721,0.0133 c -0.119917,-0.19403 0.03883,-0.35278 0.352777,-0.35278 0.313944,0 0.472694,0.15875 0.352778,0.35278 -0.119916,0.19403 -0.278666,0.35278 -0.352778,0.35278 -0.07411,0 -0.232861,-0.15875 -0.352777,-0.35278 z m 4.056944,-0.0225 c -2.053022,-0.13615 -0.996185,-0.20178 3.351388,-0.20813 6.099387,-0.009 6.801979,0.10322 1.940278,0.30963 -1.26118,0.0536 -3.64243,0.008 -5.291666,-0.1015 z m 10.085313,-0.27991 c -0.102786,-0.16631 0.527494,-0.30238 1.400619,-0.30238 0.873125,0 1.671595,0.13607 1.77438,0.30238 0.102786,0.16631 -0.527494,0.30238 -1.400619,0.30238 -0.873125,0 -1.671595,-0.13607 -1.77438,-0.30238 z m 4.731352,-0.006 c 0,-0.16978 0.396875,-0.30868 0.881945,-0.30868 0.485069,0 0.881944,0.1389 0.881944,0.30868 0,0.16977 -0.396875,0.30868 -0.881944,0.30868 -0.48507,0 -0.881945,-0.13891 -0.881945,-0.30868 z m 3.615972,-0.28728 c 0.339549,-0.0887 0.895174,-0.0887 1.234723,0 0.339548,0.0887 0.06174,0.16134 -0.617362,0.16134 -0.679097,0 -0.956909,-0.0726 -0.617361,-0.16134 z m 3.175,-0.01 c 0.533577,-0.0808 1.406701,-0.0808 1.940278,0 0.533576,0.0808 0.09701,0.14697 -0.970139,0.14697 -1.067153,0 -1.503715,-0.0661 -0.970139,-0.14697 z m 4.240047,0.008 c 0.343242,-0.0894 0.819492,-0.0836 1.058333,0.0131 0.238841,0.0966 -0.04199,0.16981 -0.624075,0.16262 -0.582083,-0.007 -0.777501,-0.0863 -0.434258,-0.17569 z m 1.736643,0.0592 c 0.277619,-0.27763 2.722534,-0.31715 2.991323,-0.0484 0.128481,0.12849 -0.533686,0.23361 -1.471486,0.23361 -0.937799,0 -1.621726,-0.0834 -1.519837,-0.18525 z m 3.812893,-0.17085 c 0,-0.16938 1.9053,-0.35699 4.234,-0.41691 2.3287,-0.0599 4.2337,0.0101 4.233333,0.15565 -3.53e-4,0.14552 -1.469104,0.27552 -3.263861,0.28889 -1.794757,0.0134 -3.699757,0.0819 -4.233333,0.15232 -0.533577,0.0704 -0.970139,-0.0106 -0.970139,-0.17995 z m -44.748317,-0.16873 c 0.30835,-0.30835 3.120542,-0.41344 3.120542,-0.11662 0,0.15877 -0.740831,0.28867 -1.646301,0.28867 -0.90546,0 -1.568871,-0.0774 -1.474241,-0.17205 z m 3.673962,-0.21997 c 0.10658,-0.17244 1.56024,-0.31353 3.230361,-0.31353 1.670124,0 2.967404,0.0692 2.882847,0.15374 -0.309767,0.30977 -6.302708,0.46641 -6.113208,0.15979 z m 50.952132,0.0392 c 0,-0.19403 0.16812,-0.35278 0.373599,-0.35278 0.205479,0 0.275484,0.15875 0.155568,0.35278 -0.119917,0.19402 -0.288036,0.35277 -0.373599,0.35277 -0.08556,0 -0.155568,-0.15875 -0.155568,-0.35277 z m -43.832636,-0.24897 c 0.436563,-0.0841 1.150938,-0.0841 1.5875,0 0.436562,0.0841 0.07937,0.15288 -0.79375,0.15288 -0.873125,0 -1.230312,-0.0688 -0.79375,-0.15288 z m 3.880555,0 c 0.436563,-0.0841 1.150938,-0.0841 1.5875,0 0.436563,0.0841 0.07937,0.15288 -0.79375,0.15288 -0.873125,0 -1.230312,-0.0688 -0.79375,-0.15288 z m 2.587036,0.10893 c 0.300574,-0.28635 9.142825,-0.43386 9.142825,-0.15253 0,0.16091 -2.090208,0.29257 -4.644909,0.29257 -2.554696,0 -4.578758,-0.063 -4.497916,-0.14004 z m 9.84838,-0.21274 c 0,-0.19403 0.16812,-0.35278 0.373599,-0.35278 0.205479,0 0.275484,0.15875 0.155568,0.35278 -0.119916,0.19403 -0.288036,0.35278 -0.373599,0.35278 -0.08556,0 -0.155568,-0.15875 -0.155568,-0.35278 z m 1.058333,0 c 0,-0.19403 0.357188,-0.35035 0.79375,-0.34738 0.641858,0.004 0.692489,0.0708 0.264584,0.34738 -0.683952,0.442 -1.058334,0.442 -1.058334,0 z m 3.175,-0.0373 c 0,-0.1735 0.396875,-0.31546 0.881945,-0.31546 1.149304,0 1.149085,0.51372 -2.51e-4,0.58004 -0.484932,0.028 -0.881694,-0.0911 -0.881694,-0.26458 z m 25.68663,0.14911 c 0.25466,-0.10191 0.558934,-0.0894 0.676159,0.0279 0.117224,0.11723 -0.09114,0.2006 -0.463021,0.18529 -0.410968,-0.0169 -0.494559,-0.10052 -0.213138,-0.21314 z m 2.098732,-0.009 c 0.438823,-0.0844 1.073823,-0.0812 1.411111,0.007 0.337287,0.0883 -0.02177,0.15734 -0.797864,0.15342 -0.776111,-0.004 -1.052071,-0.0762 -0.613247,-0.16054 z m -24.341665,-0.35278 c 0.438823,-0.0844 1.073823,-0.0812 1.411111,0.007 0.337287,0.0883 -0.02177,0.15734 -0.797864,0.15342 -0.776111,-0.004 -1.052071,-0.0762 -0.613247,-0.16054 z m 3.170886,0.0159 c 0.242535,-0.0979 0.63941,-0.0979 0.881944,0 0.242535,0.0979 0.0441,0.17793 -0.440972,0.17793 -0.485069,0 -0.683507,-0.0801 -0.440972,-0.17793 z m 1.785937,-0.007 c 0.25466,-0.10191 0.558934,-0.0894 0.676159,0.0279 0.117225,0.11723 -0.09114,0.20061 -0.463021,0.18529 -0.410968,-0.0169 -0.494559,-0.10052 -0.213138,-0.21314 z m 2.359202,-0.11915 c 0.792321,-0.15666 1.558074,-0.13887 1.74625,0.0406 0.202176,0.19278 -0.357664,0.30347 -1.411111,0.279 l -1.74625,-0.0406 z m 2.293055,0.0403 c 0,-0.22394 0.690351,-0.38567 1.646297,-0.38567 1.945231,0 1.809655,0.37214 -0.221036,0.60671 -0.896415,0.10354 -1.425261,0.0215 -1.425261,-0.22104 z m -40.657637,-0.26653 c 0.24254,-0.0979 0.63941,-0.0979 0.88195,0 0.24253,0.0979 0.0441,0.17794 -0.44098,0.17794 -0.48507,0 -0.6835,-0.0801 -0.44097,-0.17794 z m 1.78594,-0.007 c 0.25466,-0.1019 0.55893,-0.0894 0.67616,0.0279 0.11722,0.11722 -0.0911,0.2006 -0.46302,0.18528 -0.41097,-0.0169 -0.49456,-0.10052 -0.21314,-0.21314 z m 1.124478,-0.11179 c 0,-0.19403 0.168119,-0.35278 0.373598,-0.35278 0.205479,0 0.275484,0.15875 0.155568,0.35278 -0.119916,0.19403 -0.288036,0.35278 -0.373599,0.35278 -0.08556,0 -0.155567,-0.15875 -0.155567,-0.35278 z m 41.892358,0.10381 c 0.436562,-0.0841 1.150937,-0.0841 1.5875,0 0.436562,0.0841 0.07937,0.15289 -0.79375,0.15289 -0.873125,0 -1.230313,-0.0688 -0.79375,-0.15289 z m 4.497916,-0.0945 c 2.286917,-0.30843 6.030616,-0.45089 5.791436,-0.22038 -0.08085,0.0779 -1.893242,0.2236 -4.027547,0.32375 -2.814867,0.13209 -3.299273,0.10371 -1.763889,-0.10337 z m -44.002706,-0.26494 c 0.634065,-0.0785 1.586565,-0.0769 2.116666,0.004 0.530102,0.0805 0.01132,0.14474 -1.152846,0.14276 -1.164166,-0.002 -1.597885,-0.0678 -0.96382,-0.14636 z m 4.583906,0.006 c 0.438823,-0.0844 1.073823,-0.0812 1.411111,0.007 0.337287,0.0883 -0.02177,0.15733 -0.797864,0.15342 -0.776111,-0.004 -1.052071,-0.0762 -0.613247,-0.16054 z m 8.638941,0.0437 c 0.113182,-0.11319 0.946619,-0.20579 1.852083,-0.20579 0.905464,0 1.738902,0.0926 1.852083,0.20579 0.113182,0.11318 -0.720255,0.20578 -1.852083,0.20578 -1.131827,0 -1.965265,-0.0926 -1.852083,-0.20578 z m 5.732639,-0.147 c 0.119916,-0.19402 0.288036,-0.35277 0.373598,-0.35277 0.08556,0 0.155568,0.15875 0.155568,0.35277 0,0.19403 -0.16812,0.35278 -0.373598,0.35278 -0.205479,0 -0.275485,-0.15875 -0.155568,-0.35278 z m 4.32564,-0.2495 c 0.438824,-0.0844 1.073824,-0.0812 1.411111,0.007 0.337288,0.0883 -0.02177,0.15734 -0.797863,0.15342 -0.776111,-0.004 -1.052071,-0.0762 -0.613248,-0.16054 z m 3.706767,0.005 c 0.343242,-0.0894 0.819492,-0.0836 1.058333,0.0131 0.238841,0.0966 -0.04199,0.16982 -0.624074,0.16263 -0.582084,-0.007 -0.777501,-0.0863 -0.434259,-0.1757 z m 3.697453,0.0108 c 0.242535,-0.0979 0.63941,-0.0979 0.881944,0 0.242535,0.0979 0.0441,0.17793 -0.440972,0.17793 -0.485069,0 -0.683507,-0.0801 -0.440972,-0.17793 z m 2.84427,-0.007 c 0.25466,-0.10191 0.558935,-0.0894 0.676159,0.0279 0.117225,0.11723 -0.09114,0.2006 -0.463021,0.18529 -0.410968,-0.0169 -0.494559,-0.10052 -0.213138,-0.21314 z m 2.359202,-0.11179 c 0.119916,-0.19403 0.367411,-0.35278 0.549987,-0.35278 0.182577,0 0.331957,0.15875 0.331957,0.35278 0,0.19402 -0.247495,0.35277 -0.549987,0.35277 -0.302493,0 -0.451874,-0.15875 -0.331957,-0.35277 z m 2.204861,-0.24897 c 0.436562,-0.0841 1.150937,-0.0841 1.5875,0 0.436562,0.0841 0.07938,0.15288 -0.79375,0.15288 -0.873125,0 -1.230313,-0.0688 -0.79375,-0.15288 z m 2.647258,0.0418 c 0.372611,-0.37261 3.08538,-0.49448 3.08538,-0.13861 0,0.19021 -0.740833,0.34583 -1.646297,0.34583 -0.905461,0 -1.553048,-0.0933 -1.439083,-0.20722 z m 3.597793,-0.17267 c -0.112169,-0.18149 0.536766,-0.32567 1.465841,-0.32567 0.916916,0 1.593212,0.0739 1.502883,0.16423 -0.340829,0.34083 -2.776008,0.47326 -2.968724,0.16144 z m 5.337658,0.0744 c -0.103833,-0.16801 -0.62914,-0.24518 -1.167345,-0.1715 -0.770657,0.1055 -0.834139,0.0711 -0.298796,-0.16201 0.606277,-0.26398 0.616275,-0.32034 0.09246,-0.52135 -0.323011,-0.12395 -1.382967,-0.14739 -2.355455,-0.0521 -0.972489,0.0953 -1.768161,0.034 -1.768161,-0.13629 0,-0.56537 4.026834,-0.46412 5.220296,0.13126 0.621337,0.30996 1.129703,0.71069 1.129703,0.89051 0,0.41265 -0.601577,0.4278 -0.852706,0.0215 z m -19.079237,-0.57531 c 0.881006,-0.2985 6.526389,-0.41831 6.526389,-0.13852 0,0.17256 -1.547813,0.30121 -3.439583,0.28589 -1.891771,-0.0153 -3.280833,-0.0816 -3.086806,-0.14737 z m 6.879167,-0.17756 c 0,-0.19402 0.326869,-0.35277 0.726376,-0.35277 0.399507,0 0.628262,0.15875 0.508346,0.35277 -0.119916,0.19403 -0.446786,0.35278 -0.726377,0.35278 -0.27959,0 -0.508345,-0.15875 -0.508345,-0.35278 z m 3.615972,-0.25268 c 0.533576,-0.0808 1.406701,-0.0808 1.940277,0 0.533577,0.0808 0.09701,0.14697 -0.970139,0.14697 -1.067152,0 -1.503715,-0.0661 -0.970138,-0.14697 z"
       id="path5064"
       inkscape:connector-curvature="0"
       sodipodi:nodetypes="ccscsccccccccscccccscccccssccsccccscccsscsccscccccccscsscscsscsscscccscscscssscccccscscccccscccccccssscssscssccccccccccsscccccccsscsscccccccccccccccccsccccccsscsccssccccscscsccscccsccsscsscssscsscsscccccccscsscsssssssscssscccccccscsscsscssscsscssccsccccccsssscccccsccsscsssccccccccccssssscscscccccsccccccscsccscscccccsscssssccsccccccccccccccccccsccccsccsscccccccccccsccccccccsccccccccsccccsccccccscccccccccccscssscssccscccssccscssccccccccccccccccccccccsccccscsccssssssssssscssccccsccccccscscccccccsccccscccccsccscccccccscscccccccccssscccsccccsccccccssccccscccccccccssccsccccccccsssssssssssscscsssccccccscscssssscssccssccccccccsccsccccscssccsccsscsscssccssccsscssssssccssscscccccccccccccccccscccccccccccsscsccsccccccssssscssccccccccccccccccscsccssscccccccccccccscccccccsssccssccssccscccccccscscccsccsscsscssc" />
  </g>
</svg>
