<?xml version="1.0" encoding="UTF-8" standalone="no"?>
<svg id="svg4160" xmlns:rdf="http://www.w3.org/1999/02/22-rdf-syntax-ns#" xmlns="http://www.w3.org/2000/svg" height="725" viewBox="0 0 1021 725" width="1021" version="1.1" xmlns:cc="http://creativecommons.org/ns#" xmlns:dc="http://purl.org/dc/elements/1.1/">
<path id="path4172" d="m863.35 723.24c-0.25316-0.96807-2.5735-2.5832-5.1564-3.5892-11.463-4.4647-16.062-8.2042-15.425-12.542 0.38751-2.6403 0.0864-3.1045-2.414-3.7218-5.92-1.46-19.36-16.74-19.36-22 0-1.3685-0.66567-3.7754-1.4793-5.3487-1.1567-2.2368-1.2431-3.5381-0.39621-5.9675 0.86945-2.4941 0.76675-3.5896-0.52073-5.5546-2.0964-3.1994-2.0229-3.8609 0.35944-3.2379 2.5515 0.66723 3.7988-0.93986 4.5953-5.9206l0.64622-4.0412-24.352 0.12076c-27.501 0.13638-30.575 0.77521-41.852 8.6974-6.7724 4.7574-7.7672 3.2549-1.865-2.8169 8.9764-9.2344 20.997-13.61 43.695-15.906 8.4313-0.85291 18.556-2.4198 22.5-3.4819 3.9437-1.0622 12.332-3.1106 18.64-4.552 15.44-3.53 16.03-3.97 16.03-12 0-7.6079 0.11036-7.5765-6.5702-1.8692-14.521 12.405-30.153 14.489-31.613 4.2143-0.28358-1.9954-0.80369-2.1964-4.9416-1.91-4.4569 0.30842-4.6074 0.2293-4.1466-2.1809 0.32096-1.679-0.24002-3.263-1.707-4.82-3.8406-4.0762-4.1746-5.4216-1.9798-7.9763l2.0128-2.3429 1.5946 2.25c2.1376 3.0161 3.3474 2.8364 3.366-0.5 0.0189-3.3922 0.76327-4.4745 4.0763-5.9268 1.4254-0.62483 3.343-2.7194 4.2613-4.6546 2.9896-6.3 14.257-13.459 16.948-10.768 0.8656 0.8656 0.83854 1.6466-0.10964 3.1649-2.0507 3.2837-0.49527 3.8924 5.0007 1.957 7.3635-2.5931 9.7132-1.1873 6.2586 3.7447l-1.5496 2.2124 6.0496-0.6323c6.8074-0.71151 8.1344 0.88921 3.7996 4.5832-1.2375 1.0546-3.375 2.8639-4.75 4.0207l-2.5 2.1033 5-0.66792c2.75-0.36736 6.0732-1.5046 7.3849-2.5273 5.5107-4.2965 11.051-0.28054 8.0531 5.8373-2.68 5.46-3.64 12.3-1.72 12.3 3.6028 0 5.2727-4.4755 6.4366-17.25 0.53639-5.8874 0.73991-6.0995 5.5524-5.7852 2.5323 0.16537 2.7497-0.15148 3.3836-4.9304 1.3255-9.9919 7.0269-8.4515 9.9548 2.6896 3.4643 13.182 5.4837 14.268 13.288 7.1417 2.9328-2.6779 6.3078-5.0674 7.5-5.3099 1.1922-0.24253 5.271-1.0124 9.0639-1.7109 6.5793-1.2116 7.4067-1.699 18-10.605 10.594-8.9069 20.99-15.108 28.104-16.764 5.8313-1.3574 18.897-1.2551 21.215 0.16613 1.2182 0.7469 3.5257 1.358 5.1279 1.358 3.7565 0 8.8949 2.224 12.541 5.4279l2.8833 2.5338-2.8822 3.7691c-1.5852 2.073-5.2695 8.4941-8.1872 14.269-2.9177 5.775-6.3164 11.414-7.5525 12.531-1.2362 1.1172-3.6622 4.4922-5.3913 7.5-1.729 3.0078-4.0578 6.0285-5.1751 6.7126-1.1173 0.68409-2.8955 2.9341-3.9516 5-7.1204 13.928-20.661 28.245-26.722 28.252-9.7226 0.0118-40.648 14.511-48.792 22.875l-3.8863 3.9919 3.2576 1.981c2.9865 1.8162 7.8883 9.9444 6.2162 10.308-0.38561 0.0838-1.3761 0.19628-2.2011 0.25-1.0594 0.069-1.5888 1.4759-1.8024 4.7901-0.3 4.53-5.07 10.81-8.22 10.81-0.51716 0-7.5193 3.15-15.56 7-15.62 7.4787-17.36 7.9831-18.077 5.2399zm8.6697-9.0983c4.0486-3.3275 9.6864-6.3123 17.311-9.1652 15.114-5.6547 14.52-12.852-0.95673-11.6-17.51 1.4165-38.237 18.282-27.316 22.228 5.2587 1.9001 7.1817 1.6434 10.962-1.4634zm-10.83-15.9c3.1304-2.6076 7.7728-6.0334 10.316-7.6128l4.6248-2.8717-3.3165-2.8377c-3.3079-2.8304-6.2329-3.6722-7.2185-2.0775-0.28604 0.46282-5.0376 3.8973-10.559 7.6322-11.977 8.1014-12.066 8.3202-4.539 11.157 4.5358 1.7095 4.5913 1.692 10.692-3.3896zm-15.972-7.3472c5.3966-7.3522 21.485-16.959 24.843-14.834 2.17 1.37 3.94 1.12 3.94-0.56 0-0.825 0.5673-1.5 1.2607-1.5 0.69337 0 4.2934-2.0345 8-4.5211 7.3618-4.9387 9.1474-4.5083 2.7212 0.65584-4.9059 3.9425-4.4686 4.4613 4.9985 5.9301 6.9322 1.0756 7.5496 1.0245 8.4975-0.70253 0.56219-1.0243 3.1735-3.9648 5.8028-6.5344 5.6008-5.4736 5.7177-5.3434-6.6766-7.4374l-9.6097-1.6236-3.683 2.8091c-2.3715 1.8088-3.8245 2.3845-4.0805 1.6165-0.60325-1.8098-2.3925-1.4468-6.4457 1.3074-5.1857 3.5238-6.484 3.1049-3.3029-1.0657 3.2049-4.2019 3.0897-4.4176-2.6127-4.8918-10.82-0.91-21.09-3.55-13.76-3.55 0.60884 0 0.82876-0.72506 0.48869-1.6112-0.48684-1.2687-0.13752-1.4947 1.643-1.0632 16.062 3.8927 31.723 2.6492 21.443-1.7027-12.095-5.1202-8.0849-9.0762 8.4556-8.3406l12.659 0.56302 6.8518-4.0366c3.7685-2.2201 8.7585-4.8668 11.089-5.8816s5.7055-3.2144 7.5-4.888c12.747-11.888 16.742-16.262 19.676-21.539 6.5858-11.849 19.142-25.5 23.456-25.5 3.2 0 11.4-7.6313 9.8578-9.1738-0.79858-0.79858-1.5297-0.82842-2.4339-0.0993-0.71081 0.57318-2.7657 1.3572-4.5663 1.7423-1.8007 0.38511-4.6421 1.8514-6.3143 3.2584s-4.3439 3.5064-5.9372 4.6653-5.5865 4.2195-8.8738 6.8014-8.1423 5.9784-10.789 7.5477c-2.6466 1.5693-6.287 3.7318-8.0899 4.8056-4.5459 2.7075-4.8843 5.2265-1.6658 12.398 2.7946 6.2271 2.7527 8.3852-0.11648 6.004-3.0304-2.515-7.8362-10.386-7.888-12.918-0.10003-4.8927-10.87-0.65651-15.012 5.9048-3.8336 6.0727-11.26 6.6948-17.476 1.464-3.06-2.57-5.07-3.08-5.07-1.29 0 2.5095-6.1976 8.8939-8.6337 8.8939-3.8408 0-8.0657 2.6661-8.7885 5.546-2.0145 8.0264-7.2004 11.904-22.028 16.47-10.78 3.32-12.55 4.48-12.55 8.26 0 1.777-0.4762 4.803-1.0582 6.7243-5.6181 18.547 5.6308 43.668 14.278 31.887zm15.28-18.56c-1.1-0.23949-4.3686-0.89545-7.2635-1.4577-3.0284-0.58818-5.0025-1.4445-4.6488-2.0167 0.33804-0.54696 1.3566-0.70232 2.2635-0.34524 0.90687 0.35708 4.3171 1.0856 7.5783 1.6189 6.5713 1.0746 10.906 2.8702 6.5706 2.7218-1.375-0.0471-3.4-0.28154-4.5-0.52103zm23.091-34.709c0.33509-0.87323-0.40774-1.6115-2.0314-2.019-8.0678-2.0249-0.1664-5.6137 13.916-6.3206 13.081-0.65662 14.147-1.0905 14.994-6.1045 0.88483-5.2373 4.1403-10.401 6.2956-9.9859 2.5393 0.48902 2.648 3.3216 0.31256 8.1459-1.14 2.36-2.08 5.29-2.08 6.5 0 3.1-3.5 4.16-13.68 4.16-8.4942 0-8.571 0.0229-11.756 3.5-3.178 3.4696-7.0125 4.8328-5.9728 2.1234zm17.41 51.42c0-0.77-18.11-7.04-20.36-7.04-1.4962 0-0.46135 2.0264 1.6108 3.1544 5.5411 3.0163 18.75 5.7557 18.75 3.8885zm-4.1796-7.3265c1.9257-2.3203-0.21918-3.5264-8.2598-4.6448-9.9837-1.3886-12.392 0.0876-3.9438 2.4174 3.2358 0.89238 6.7833 2.0169 7.8833 2.499 2.7641 1.2113 3.1075 1.1898 4.3204-0.27169zm22.68-22.259c7.1386-3.157 6.818-3.4692-5.134-4.9993-17.294-2.214-28.51 1.623-14.866 5.0856 11.621 2.9491 13.151 2.9425 20-0.0863zm18.25-6.57c9.4771-2.2946 2.3728-3.3803-24.929-3.8095-11.51-0.18096-9.9502 2.2239 2.2111 3.4092 3.5926 0.35015 7.1926 1.0754 8 1.6118 1.6579 1.1013 6.9731 0.66378 14.718-1.2114zm-46.3-3.9815c1.8375-1.7304-1.0838-2.9356-7.3289-3.0235-6.8813-0.0969-8.0011 0.36356-6.1905 2.5453 2.0568 2.4783 11.057 2.7967 13.519 0.47818zm66.223-1.722c3.2741-3.2745 7.0202-9.8128 6.1314-10.702-2.7758-2.7758-26.095-2.9695-26.618-0.22116-0.24884 1.3076 0.33202 1.75 2.2975 1.75 3.0943 0 11.684 1.9777 12.77 2.9402 0.41484 0.36757-5.0646 0.73652-12.176 0.8199-18.992 0.22266-29.57 5.1732-11.328 5.3013 4.8125 0.0338 11.9 0.65835 15.75 1.3879 9.8924 1.8745 10.036 1.8606 13.173-1.2766zm-29.42-9.63c4.46-1.87 4.88-3.55 0.89-3.55-1.7176 0-4.4173 1.2565-6.75 3.1417l-3.8875 3.1417 3-0.5768c1.65-0.31725 4.6875-1.287 6.75-2.1551zm39.728-4.5095c1.4556-2.7199-0.66552-3.6646-10.228-4.5552-9.1247-0.84981-11.464 1.4968-3.5 3.5111 2.3375 0.59122 5.15 1.4781 6.25 1.9709 3.3648 1.5073 6.3745 1.1343 7.4775-0.92673zm-23.299-3.3867c0.96033-0.96033-0.69995-2.2848-3.7664-3.0046-2.7404-0.64328-6.628 1.3813-5.66 2.9477 0.64245 1.0396 8.3969 1.0865 9.4264 0.057zm27.289-2.5946c1.2952-2.4202 0.94742-2.6254-6.8431-4.0381-10.775-1.9539-12.804 0.76241-2.8744 3.8481 8.0329 2.4963 8.4786 2.505 9.7175 0.19zm-22.64-7.31c1.3381-1.7875 3.1267-4.6 3.9748-6.25 0.84808-1.65 5.3449-7.2724 9.993-12.494 9.5002-10.673 10.209-13.211 2.5857-9.2562-3.9944 2.0724-5.8901 4.034-9.6761 10.013-2.5897 4.0894-6.4277 10.083-8.5289 13.318-4.9295 7.5905-3.5195 11.577 1.6515 4.6696zm26.087 1.643c5.9434-2.2807 0.7495-5.393-9-5.393-9.9934 0-10.075 2.0358-0.16821 4.1976 3.9875 0.87017 7.3257 1.6317 7.4182 1.6922 0.0925 0.0606 0.88002-0.16302 1.75-0.49687zm4.3657-7.2383c0.70613-0.44805 1.009-1.531 0.67298-2.4066-0.84263-2.1958-15.275-3.6598-16.503-1.6739-1.3055 2.1123-0.14522 2.9184 4.3549 3.0254 2.305 0.0548 5.316 0.45997 6.691 0.90032 3.3766 1.0814 3.326 1.0798 4.7839 0.15474zm6.2049-7.6365c1.1835-1.915 1.9058-3.8798 1.6051-4.3664-0.30069-0.48652 0.3282-1.6764 1.3975-2.6441 1.428-1.2923 1.6969-2.2218 1.0126-3.5004-1.216-2.2721-12.882-3.8221-14.088-1.8717-1.1988 1.9397-0.11935 2.8612 3.3928 2.8962 1.755 0.0175 4.091 0.73016 5.191 1.5837 1.8835 1.4615 1.7431 1.5324-2.409 1.2182-4.9848-0.37728-6.7444 1.5306-2.9247 3.1711 1.7624 0.75698 1.0185 0.85197-3.0388 0.38806-8.2362-0.94172-8.6811 1.368-0.79905 4.1489 8.3073 2.9309 8.2106 2.9402 10.66-1.0236zm7.8482-14.91c0.45463-2.3607-1.4311-3.5734-5.5869-3.593-4.0846-0.0192-4.351 2.291-0.5 4.3356 3.5257 1.8718 5.6329 1.6148 6.0869-0.74254zm3.5983-6.5036c0.67-1.09-1.75-2.1-5.02-2.1-2.5491 0-3.2896 1.4817-1.1682 2.3377 2.0977 0.84643 5.5997 0.71455 6.1852-0.23294zm-9.1398-8.3207c1.5375-0.55626 2.6252-1.5227 2.4171-2.1477-0.61027-1.8331-3.6196-1.9273-6.2618-0.19607-2.8786 1.8861-3.446 5.1771-0.70083 4.0644 0.9625-0.3901 3.008-1.1644 4.5454-1.7207zm-224.3 42.72c-1.6586-0.94812-5.6286-1.4411-11.795-1.4646-8.5578-0.0326-9.4939-0.23385-11.795-2.5354-1.375-1.375-3.284-2.5-4.2423-2.5-3.4136 0-8.8153-5.5958-7.5017-7.7713 0.96064-1.591 0.81002-2.2336-0.8584-3.6622-5.4893-4.7001 2.171-14.975 12.698-17.033 4.5551-0.8903 40.355-0.83679 45.18 0.0675 4.8417 0.90747 5.7512-0.29408 2.8407-3.7529-1.39-1.65-2.53-3.37-2.53-3.82 0-0.44691-3.7125-4.609-8.25-9.2491-7.9223-8.1013-8.6847-9.3075-19.193-30.361-12.32-24.67-14.82-28.82-21.65-35.92-5.2909-5.5027-11.572-17.207-15.368-28.633-2.7646-8.3236-8.8968-22.618-10.309-24.03-1.5876-1.5876 3.9256-22.302 6.1643-23.161 4.4879-1.7222 5.5597 3.9548 3.1558 16.715-1.8098 9.6064-1.0659 12.84 1.9093 8.2996 3.9544-6.0351 6.9528-2.9172 6.635 6.8995-0.4669 14.422 6.872 33.781 16.836 44.41 8.642 9.2186 16.802 22.993 27.901 47.099 3.9306 8.5369 6.2344 12.038 11.844 18 17.278 18.363 14.88 21.316-20.182 24.858-16.555 1.6724-30.313 8.4698-22.591 11.162 3.9396 1.3734 3.0558 2.8727-1.7176 2.9138-4.5039 0.0388-7.6876 2.0716-5.9562 3.803 0.64086 0.64086 2.1736 1.1652 3.4062 1.1652 1.2325 0 2.5201 0.45165 2.8613 1.0037 0.99684 1.6129 5.8345-0.0327 7.8695-2.6769 1.4675-1.9068 2.4668-2.3015 4.6263-1.8272 2.7454 0.60298 5.3074-0.92697 6.249-3.7317 0.33903-1.0099 0.94629-0.99055 2.9843 0.0949 2.1866 1.1646 3.9189 1.1204 11.914-0.30408 13.538-2.4122 24.736-4.3344 29.6-5.0811 3.82-0.58 13.26-9.89 13.26-13.06 0-3.1165 28.379-32.433 37.394-38.628l5.8939-4.0508 1.7073 2.2634 1.7073 2.2634 2.6488-3.4728c4.9888-6.5406 3.1716-10.73-7.138-16.456-10.636-5.9071-16.517-9.8727-19.224-12.962-3.51-4-10.99-15.13-10.99-16.35 0-0.55-1.38-1.01-3.07-1.01-4.63 0-6.93-1.64-6.93-4.95 0-2.737-6.7675-9.7236-14.624-15.097-5.1346-3.5119-14.25-10.255-18.523-13.703-2.5559-2.0621-7.6184-6.1529-11.25-9.0906s-6.6029-5.9752-6.6029-6.75c0-1.8938 1.4477-1.7796 3.1276 0.24688 1.2565 1.5158 11.526 10.012 17.943 14.844 16.308 12.282 26.019 19.816 28.86 22.391 1.8866 1.71 3.7806 3.109 4.209 3.109 0.69106 0-4.5969-10.783-10.421-21.25-2.3212-4.1717-4.8291-5.0176-4.4565-1.5032 0.30208 2.8492-3.251 3.5746-6.4688 1.3208-1.76-1.23-1.88-1.57-0.57-1.57 4.8119 0 1.0534-5.8521-8.6552-13.476-12.25-9.62-39.56-34.79-39.56-36.46 0-1.8847 1.9539-1.1343 4.2566 1.6348 3.4346 4.1302 15.984 15.954 22.455 21.158 3.1838 2.5602 9.9944 8.1401 15.134 12.4 14.891 12.34 16.885 9.1626 4.3634-6.951-1.49-1.9174-6.7469-6.2243-11.682-9.571-4.9351-3.3466-8.45-6.2591-7.811-6.4721 0.63908-0.21302 2.3098 0.36479 3.7127 1.284 2.4012 1.5733 2.5909 1.5668 3.2352-0.11209 0.89878-2.3422-7.2264-9.9615-18.92-17.742-9.3185-6.2003-12.892-11.804-7.4348-11.659 1.7143 0.0455 6.902 4.8179 6.2986 5.7943-0.27949 0.45222 0.48102 0.7889 1.69 0.74817 1.3405-0.0452 2.5699 0.77077 3.1509 2.0911 0.52812 1.2003 2.2075 2.4161 3.7686 2.7283 1.8505 0.37009 3.1658 1.4836 3.8366 3.2477 0.7069 1.8593 1.3405 2.3647 2.0611 1.6441 2.6768-2.6768-4.8371-12.05-12.961-16.168-10.436-5.2903-14.14-7.4807-14.147-8.3672-0.0102-1.2091 3.2886-0.79634 5.9937 0.75 6.8638 3.9237 4.2013 0.29808-4.1772-5.6882-3.3192-2.3715-7.6747-5.7994-9.6788-7.6176-2.0042-1.8182-4.769-3.9198-6.144-4.6702-2.4644-1.345-16-14.84-16-15.952 0-3.1013 12.099 6.448 18.881 14.902 1.1201 1.3962 1.5418 1.4667 2.2347 0.37343 1.614-2.5467 0.87077-3.6364-5.1066-7.4876-5.8514-3.77-7.1215-5.5543-4.9216-6.9139 0.76597-0.4734 0.72904-1.0078-0.125-1.809-0.90786-0.85169-1.325-0.82985-1.6618 0.087-0.33486 0.91149-1.0794 0.81147-2.9156-0.39162-3.0182-1.9776-5.2618-5.6063-2.9078-4.703 2.1878 0.83955 1.8762-1-0.53986-3.1865-2.9917-2.7074-24.685-2.9305-30.048-0.30901-1.9863 0.97093-6.7113 2.2806-10.5 2.9103-3.7887 0.62971-10.86 2.0024-15.714 3.0503-10.54 2.28-9.68 2.24-9.68 0.49 0-2.5686 6.8357-5.7083 16.746-7.6914 10.03-2.007 15.899-3.9366 27.334-8.9851 4.4578-1.9682 8.2262-2.9051 11.685-2.9051 2.8078 0 6.2139-0.42154 7.569-0.93675 6.2921-2.3923 28.913 9.7806 29.493 15.871 0.21811 2.2899 1.6717 4.9555 4.3626 8 2.2195 2.5112 5.7868 8.1659 7.9272 12.566 2.1404 4.4 5.1401 10.25 6.6659 13s3.5263 6.8 4.4456 9c2.6352 6.3066 10.533 20.407 14.319 25.565 1.8989 2.5868 3.4525 4.9794 3.4525 5.3169 0 1.5476 10.628 19.532 13.583 22.986 1.8202 2.127 3.5851 5.1225 3.9221 6.6568 0.33697 1.5342 2.2098 5.419 4.1619 8.6327 1.9521 3.2138 5.5823 9.6682 8.0671 14.343 2.4848 4.675 4.8632 8.95 5.2852 9.5 0.91193 1.1884 4.2262 7.0942 7.5715 13.492 8.1034 15.497 24.817 27.385 43.409 30.875 4.3891 0.82388 5.6882 7.652 2.1882 11.501-1.0661 1.1725-2.4575 3.139-3.0921 4.37-0.63461 1.231-2.3783 2.536-3.875 2.9-2.9215 0.71056-11.977 10.032-16.282 16.76-10.844 16.949-21.962 20.383-13.513 4.174 4.863-9.3298 4.0894-8.7649-17.517 12.791-12.221 12.192-21.076 20.203-23.909 21.631-2.475 1.2467-5.625 3.0288-7 3.9602-2.5565 1.7318-15.965 6.3936-21.676 7.5364-1.765 0.35314-3.8859 1.7183-4.773 3.0722-1.8051 2.755-3.9124 3.0164-7.5505 0.93669zm5-229.07c0-1.6-2.26-4.43-3.54-4.43-0.8079 0-5.1451-2.475-9.6383-5.5-8.2357-5.5447-13.934-7.6509-8.7064-3.2184 5.2864 4.4828 6.9214 5.7184 7.5666 5.7184 0.36291 0 1.5133 0.77235 2.5564 1.7163 4.1187 3.7274 11.761 7.4429 11.761 5.7179zm-12-20.375c0-1.0675-0.46711-2.2297-1.038-2.5825-0.57091-0.35284-2.4212-3.0924-4.1117-6.0878-3.39-6.01-10.13-11.39-14.28-11.39-3.3329 0-3.2648 1.3289 0.18018 3.5154 6.0561 3.8438 11.294 10.533 8.9327 11.406-1.893 0.70028-1.529 1.127 3.3466 3.9226 6.4282 3.6859 6.9707 3.7805 6.9707 1.2147zm-35.5-30.55c0-0.54247-0.82309-1.1448-1.8291-1.3386-2.7565-0.53086-6.8395 0.74299-6.1189 1.909 0.7938 1.2844 7.948 0.77091 7.948-0.57044zm-573.18 243.62c-0.24153-0.9236-3.5995-3.8542-7.4621-6.5126-7.4056-5.0966-10.2-8.6086-11.955-15.025-0.5881-2.1503-1.7213-4.9047-2.5182-6.1209s-2.6069-5.7569-4.0222-10.09c-3.0471-9.33-4.6429-12.61-8.5582-17.593-3.3745-4.2942-7.011-12.892-8.7921-20.786-0.68247-3.025-2.2706-7.3893-3.529-9.6985-1.2585-2.3092-3.267-7.4842-4.4633-11.5s-2.5909-8.6061-3.0992-10.201c-0.506-1.59-0.922-4.44-0.922-6.31 0-4.3224-1.7093-7.6106-3.5825-6.8917-0.90733 0.34818-2.3166-0.85731-3.8595-3.3015-1.3367-2.1175-5.3841-6.4593-8.9941-9.6484-9.1665-8.0978-8.5011-10.703 1.007-3.9434 5.2202 3.7114 7.2959 4.2334 9.2126 2.3167 0.65083-0.65084 1.3503-0.98834 1.5543-0.75 4.9267 5.7549 9.6549 13.799 9.195 15.644-0.34425 1.3812 0.51998 4.1951 2.3034 7.5 1.5699 2.9092 4.4597 9.5644 6.4218 14.789 1.9621 5.225 4.4299 11.525 5.484 14 1.7016 3.9955 3.8882 12.229 5.7576 21.681 0.34602 1.7495 1.2011 3.6556 1.9001 4.2357 1.4666 1.2172 5.1801 10.662 9.2608 23.554 1.5617 4.9336 3.7887 10.109 4.9488 11.5 1.1602 1.3914 2.8344 3.9441 3.7205 5.6728s3.8231 4.7669 6.5266 6.7514c2.7035 1.9846 5.6522 4.7327 6.5526 6.1069 2.63 4.01 12.59 2.84 12.59-1.49 0-1.6 0.65-2.02 3.13-2.02 3.1179 0 6.8267-0.82472 16.366-3.6393 2.75-0.81139 14.9-3.4677 27-5.9028 28.487-5.7332 40.711-8.5533 53-12.228 6.4682-1.934 11.29-2.8212 13.652-2.5121 2.7135 0.35503 5.3197-0.31821 10.143-2.6201 3.5701-1.7039 6.9271-3.0979 7.4599-3.0979s3.9461-1.35 7.5851-3 7.217-3 7.9512-3c0.73418 0 2.6349-1.3569 4.2238-3.0154l2.8889-3.0154-3.4518 0.67261c-1.8985 0.36993-3.7439 1.1174-4.1009 1.6611-0.8582 1.307-4.1628 0.0107-3.3452-1.3122 0.34786-0.56286 1.0847-0.74389 1.6374-0.40229 0.55271 0.34159 1.9841-0.27343 3.1809-1.3667 2.7587-2.5202 6.7167-4.4735 13.676-6.7495 3.025-0.9893 7.5748-3.0753 10.111-4.6355 2.5358-1.5602 5.0524-2.8368 5.5924-2.8368 1.2821 0 22.735-14.344 40.09-26.805 14.519-10.425 20.985-14.726 30.707-20.425 9.3173-5.4614 11.627-6.8443 22.163-13.27 5.4104-3.3 10.737-6.0031 11.837-6.0069 1.9114-0.007 3.6468-0.90355 18.5-9.5614 3.575-2.0838 8.1875-4.5793 10.25-5.5455 3.6979-1.7322 4.5449-3.5833 2.8581-6.2456-1.4255-2.2499-14.629 1.0201-32.879 8.1427-9.2864 3.6244-13.195 4.2689-10.663 1.758 2.7866-2.7626 29.806-11.269 47.933-15.091 7.8838-1.6621 10.015-2.2296 11-2.9298 0.55-0.39085 3.25-1.3097 6-2.042 10.077-2.6832 24.62-14.933 20.645-17.389-1.2589-0.77807-17.253 5.0942-20.145 7.3964-3.5574 2.8316-9.9807 5.7676-15.638 7.1477-6.6334 1.6184-40.112 12.565-44.014 14.391-1.7331 0.81124-3.4322 1.475-3.7756 1.475-1.3779 0-19.428 8.9557-20.037 9.9417-0.96391 1.5596-3.536 1.287-3.536-0.37477 0-6.1114 37.885-23.269 60.732-27.505 7.8139-1.4487 18.913-5.4312 21.394-7.676 1.0358-0.93736 3.7936-2.0277 6.1285-2.423 9.6565-1.6349 32.245-10.371 32.245-12.471 0-2.9786-4.7057-2.4663-20.5 2.2317-7.425 2.2086-16.65 4.7597-20.5 5.6692s-9.4606 2.3181-12.468 3.1303c-3.0074 0.81219-6.1574 1.463-7 1.4463-4.2418-0.0842 6.0898-3.354 40.911-12.948 15.476-4.2638 18.328-5.786 16.029-8.556-1.0988-1.3239-2.5546-1.5234-7.6641-1.05-7.5314 0.69773-7.8987-0.20049-1.7728-4.3348 6.5785-4.4398 9.2048-4.896 10.381-1.8033 0.52008 1.3679 2.2838 3.44 3.9194 4.6046 1.7518 1.2474 3.9106 4.3778 5.2534 7.6175 1.2538 3.025 2.6517 5.5 3.1065 5.5 1.7445 0 10.696-4.5779 19.953-10.204 17.235-10.476 29.67-14.34 52.352-16.27 13.38-1.1384 23.064-2.7974 42.25-7.2379 7.5984-1.7586-1.4659 4.4817-9.75 6.7124-2.4688 0.66478-6.0663 1.9987-7.9944 2.9643-4.4214 2.2142-17.943 5.4915-29.006 7.0302-8.6748 1.2066-24.307 5.6505-31.5 8.955-2.2 1.0107-7.375 3.4322-11.5 5.3811-12.539 5.9246-17.86 7.6872-29.123 9.6474-13.394 2.331-13.5 2.3927-16.753 9.7423-4.6521 10.51-12.953 16.279-46.451 32.28-13.755 6.5704-22.357 11.248-22.985 12.5-0.55162 1.1-1.3142 2.6682-1.6946 3.4848-0.38044 0.81665-2.5193 2.0139-4.7529 2.6606-2.2337 0.64671-4.9899 2.1045-6.1249 3.2395s-5.3377 3.6252-9.3394 5.5337c-7.4504 3.5533-14.753 8.8981-13.67 10.006 0.33295 0.34076 4.608-1.2253 9.5-3.4802 4.8921-2.2549 9.7946-4.5012 10.895-4.9917 5.6608-2.5247 19.522-6.7258 19.943-6.0444 0.2662 0.43071-3.8871 2.4688-9.2296 4.5291-28.729 11.079-28.582 13.954 0.2864 5.6248 15.301-4.4147 15.5-4.4558 15.5-3.1961 0 2.0456-26.382 9.7398-40 11.666-9.1625 1.2959-21.892 5.9764-20.376 7.4922 0.83645 0.83645 2.7942 0.55306 14.14-2.0469 2.32-0.53 5.29-0.97 6.57-0.97 1.281 0 4.762-0.8355 7.7356-1.8567 6.92-2.37 16.9-3.68 16.9-2.21 0 0.59-1.59 1.07-3.53 1.07-1.9427 0-5.1476 0.675-7.1221 1.5s-4.4085 1.5-5.4089 1.5-2.0941 0.44529-2.4304 0.98953c-0.39849 0.64477 3.3262 0.76296 10.691 0.33922 13.89-0.79916 14.83-0.7928 27.57 0.18637l10.267 0.78913 10.233-4.3497c13.439-5.7126 23.013-11.441 37.958-22.71 12.405-9.3542 14.82-11.103 23.483-17.012 18.57-12.68 20.29-13.6 20.29-10.95 0 1.2872-45.402 35.569-51.286 38.725-8.3925 4.5009-3.8847 4.9642 4.9153 0.50515 3.7787-1.9147 7.2711-3.4897 7.7609-3.5 0.48976-0.0103 2.7398-0.90061 5-1.9785 6.6092-3.1519 35.041-14.797 50.405-20.644 3.4625-1.3178 7.8293-2.3961 9.7039-2.3961s7.5734-1.35 12.664-3c5.0905-1.65 9.5887-3 9.9959-3 0.40723 0 2.6755-1.2934 5.0405-2.8743 2.3651-1.5809 5.4251-3.204 6.8001-3.6071 1.375-0.40301 4.6433-2.0852 7.263-3.7383 6.5-4.1 38.74-4.82 38.74-0.87 0 1.9787-3.0239 3.0891-8.45 3.1028-3.3275 0.008-6.725 0.45153-7.55 0.98469-1.0738 0.69397-0.008 0.97372 3.75 0.98469 5.8236 0.017 7.6204 2.5298 2.5 3.4962-11.53 2.176-30.199 7.0866-32.25 8.483-3.9778 2.7077-23.709 12.448-33 16.291-10.26 4.25-33.58 12.75-34.96 12.75-0.54421 0-2.914 0.86873-5.2662 1.9305-9.3113 4.2031-28.522 10.93-32.777 11.477-20.182 2.5957-30 4.4993-30 5.8167 0 0.55576 1.663 0.67029 4 0.27546 2.3305-0.39373 4-0.27986 4 0.27281 0 1.3016-8.2883 2.1842-22 2.3427-6.325 0.0731-14.65 0.4562-18.5 0.85135l-7 0.71845 9 0.23146c12.044 0.30975 18.48 1.3073 16.505 2.5579-1.5619 0.98877-32.026 0.78652-59.005-0.39174-12.994-0.56749 0.85454-2.6869 19.5-2.9843 11.944-0.19051 11.083-1.4521-2.1971-3.2202-9.6134-1.2799-11.68-1.0371-26.303 3.0906-4.125 1.1644-10.2 2.727-13.5 3.4725-10.337 2.3351-26.912 6.6761-29 7.595-1.1 0.48414-3.125 1.0668-4.5 1.2949l-2.5 0.41465 2.4172 0.78731c2.224 0.72439 2.0642 0.88858-2 2.0546-27.502 7.89-45.663 16.279-35.667 16.476l3.25 0.064-3.5 1.6314c-6.7208 3.1327-22.559 11.003-30 14.907-10.747 5.6394-25.019 11.749-36 15.412-5.225 1.7428-10.85 3.7399-12.5 4.4379-1.65 0.69801-3.9 1.6215-5 2.0521-1.9204 0.75185-1.9105 0.79866 0.25 1.1766 8.7631 1.533-21.042 8.1154-46.75 10.325-6.325 0.54356-13.975 1.5112-17 2.1503-9.498 2.0066-35.145 1.9401-35.677-0.0925zm60.68-5.22c11.947-2.2958 18.238-3.3821 25.724-4.4426 3.8951-0.55173 5.6183-1.3414 6.773-3.1038 0.85184-1.3001 2.2026-2.3638 3.0016-2.3638 0.79903 0 2.9262-0.89832 4.727-1.9963 4.37-2.6644 1.4582-2.6313-6.0008 0.0682-5.6009 2.027-14.569 4.0065-26.858 5.9279-7.3294 1.146-22.042 5.6661-22.886 7.0311-0.90414 1.4629 3.8658 1.1184 15.519-1.1208zm179-74.906c1.925-0.59186 6.9929-1.7533 11.262-2.581 7.6792-1.4889 15.195-4.8748 14.242-6.4162-0.27096-0.43842-2.4078-0.35803-4.7485 0.17863-2.3407 0.53667-6.2809 1.3573-8.7559 1.8236s-6.075 1.2999-8 1.8525c-1.925 0.55256-6.2 1.7458-9.5 2.6517-6.4315 1.7656-8.0735 2.7496-7.1315 4.2738 0.61487 0.99489 6.1276 0.21679 12.631-1.7829zm-2.8992-6.1429c5.92-1.98 10.1-6.86 5.88-6.86-2.79 0-9.98 4.69-9.98 6.51 0 1.7823-0.1425 1.7702 4.1008 0.34894zm125.9-7.41c5.225-0.84021 11.127-1.9592 13.116-2.4867 1.9888-0.52748 4.6888-0.9731 6-0.99027 3.7114-0.0486 9.5224-4.1188 9.0687-6.352-0.32118-1.5807 0.0364-1.7781 2.2256-1.2286 1.9402 0.48695 5.7969-0.75641 15.056-4.8539 12.935-5.7238 19.188-8.2364 33.533-13.474 4.675-1.7068 9.2814-3.5436 10.236-4.0819 0.95504-0.53823 2.5728-0.9786 3.595-0.9786s2.7158-0.95623 3.7636-2.125l1.905-2.1249-3.5 0.70702c-6.7228 1.358-20.713 6.1559-22.45 7.6988-1.5204 1.3508-3.55 0.97582-3.55-0.65592 0-2.0116 0.39038-2.1196-11.244 3.1123-10.313 4.6376-34.663 14.218-46.756 18.395-3.575 1.2349-6.9621 2.6102-7.5269 3.0563-0.5648 0.44602-4.3898 1.568-8.5 2.4934-9.7458 2.1941-11.503 3.0999-9.8575 5.0822 0.74275 0.89496 2.0794 1.2648 3.3146 0.91698 1.1384-0.32054 6.3449-1.2702 11.57-2.1105zm-18.5 0.55c0.36155-0.585-0.67595-1-2.5-1s-2.8616 0.415-2.5 1c0.33992 0.55 1.4649 1 2.5 1s2.1601-0.45 2.5-1zm-60.365-25.737c4.8756-2.6052 8.8646-5.1364 8.8646-5.625 0-1.7231-6.118 0.36681-12.707 4.3407-3.67 2.21-7.04 4.02-7.49 4.02-0.44 0-0.81 0.45-0.81 1 0 1.9744 3.4153 0.92273 12.135-3.7367zm53.283-36.87c0.87-0.33 1.58-0.94 1.58-1.36 0-0.99589-4.8739-0.0448-5.5738 1.0877-0.62513 1.0115 1.6609 1.1682 3.992 0.27361zm40.58-26.89c2.394-1.3685 2.4081-1.4306 0.33179-1.4646-3.0129-0.0492-5.4284 0.99929-4.767 2.0693 0.7365 1.1917 1.4669 1.0921 4.4352-0.60478zm-355.35 159.74c-0.35955-0.58175 2.943-1.467 8.124-2.1777 17.433-2.3914 19.09-2.6976 20.399-3.7708 0.73205-0.60012 6.956-3.1893 13.831-5.7537s15.97-6.2088 20.211-8.0985c4.2412-1.8898 8.134-3.4359 8.6507-3.4359 0.82571 0 7.9292-3.151 23.138-10.264 2.475-1.1575 9-4.7783 14.5-8.0462 5.5-3.268 11.491-6.7936 13.314-7.8347 3.8945-2.2247 6.872-4.0491 13.686-8.3861 5.2892-3.3664 8.5344-5.1988 23-12.987 4.95-2.6649 12.3-6.7887 16.333-9.164 4.0329-2.3753 7.486-4.3187 7.6734-4.3187 0.18745 0 8.2198-3.825 17.85-8.5 9.6298-4.675 18.439-8.5 19.577-8.5 1.1373 0 2.0678-0.39316 2.0678-0.87368s2.8788-2.2488 6.3974-3.9296c3.5186-1.6807 6.6952-3.5376 7.059-4.1263 0.36-0.59 1.62-1.07 2.79-1.07 2.9354 0-2.0937 3.6885-11.663 8.5536-3.8998 1.9828-8.5773 4.4244-10.394 5.4257-1.8171 1.0014-5.4171 2.7682-8 3.9264-2.5829 1.1581-6.4962 3.2024-8.6962 4.5429-3.9358 2.3981-18.126 10.396-24 13.527-3.2076 1.7098-14.652 8.2943-19.849 11.419-1.7332 1.0424-5.6264 3.2556-8.6514 4.9182s-7.3 4.1719-9.5 5.5762-7.6 4.4209-12 6.7034c-8.9967 4.6672-24.221 12.955-26.5 14.426-4.7878 3.0907-16.688 8.6301-17.741 8.2583-0.68247-0.24097-7.6575 2.1233-15.5 5.254-7.8425 3.1306-17.342 6.7376-21.111 8.0154-6.8957 2.3382-8.348 3.0867-7.5457 3.8889 0.23971 0.2397 6.9522-0.93487 14.917-2.6102 7.9645-1.6753 15.831-3.243 17.481-3.4838 1.65-0.24079 4.8-0.8528 7-1.36 2.2-0.50721 9.625-2.1118 16.5-3.5658 13.838-2.9266 17.548-4.5317 30.584-13.232 9.626-6.4247 22.833-14.642 44.916-27.949 7.7-4.6397 16.25-9.9137 19-11.72s13.1-8.5419 23-14.968c20.138-13.072 28.585-19.146 36.154-25.999 2.8477-2.5784 5.4313-4.2181 5.7736-3.6642 1.163 1.8817-27.858 26.01-42.428 35.275-3.025 1.9236-7.975 5.0918-11 7.0404s-7.525 4.7527-10 6.2313-7.2 4.4476-10.5 6.5979c-3.3 2.1502-8.25 5.0842-11 6.5198-2.75 1.4357-5.675 3.1869-6.5 3.8916-0.825 0.70468-5.325 3.4002-10 5.9899-18.223 10.095-27.622 15.802-30.5 18.518-1.65 1.5576-4.125 3.1528-5.5 3.545-1.375 0.39215-4.015 1.5826-5.8667 2.6454s-5.4517 2.1722-8 2.4653c-2.5483 0.29308-10.258 1.8526-17.133 3.4656-15.979 3.7488-20.141 4.6386-27.5 5.8784-3.3 0.55597-10.95 1.9072-17 3.0028-22.195 4.0191-38.908 5.8169-39.854 4.2868zm660.44-4.49c-0.4754-1.2375-3.6709-5.3058-7.1012-9.0407-3.4302-3.7349-6.0483-6.9793-5.8179-7.2097 1.0776-1.0776 15.833 14.71 15.833 16.941 0 2.3355-1.9268 1.8792-2.9139-0.69014zm6.1283-21.213c-6.3163-3.3073-10.595-6.4892-9.7984-7.2862 0.2356-0.2356 2.1428 0.73664 4.2383 2.1605 5.8225 3.9565 7.3109 3.1053 2.4676-1.4111-2.3593-2.2-4.8144-4.0021-5.4558-4.0046-0.64138-0.003-2.6042-1.3525-4.3619-3-1.76-1.65-3.48-3-3.83-3-0.34412 0-1.3007-0.675-2.1257-1.5s-1.2182-1.5-0.8737-1.5c0.96847 0 12.974 8.2559 13.35 9.1806 0.18334 0.45065 0.8254 0.81936 1.4268 0.81936 1.6552 0 11.784 7.2147 12.804 9.1199 1.9532 3.6496-1.3416 3.8246-7.8497 0.41694zm-609.27-3.9585c0.79334-0.96083 4.6026-3.3384 8.465-5.2834 3.8624-1.9451 13.338-7.1603 21.058-11.589 14.602-8.3782 22.556-12.811 31.035-17.294 2.75-1.4542 10.625-5.9122 17.5-9.9066s22.85-13.252 35.5-20.572c12.65-7.3204 26.342-15.47 30.427-18.11 4.0851-2.6402 7.6448-4.5831 7.9105-4.3174 0.61883 0.61883-2.8604 4.4953-4.0346 4.4953-0.48763 0-5.0498 2.8624-10.138 6.3608-9.2173 6.3373-49.881 31.08-60.553 36.844-3.0866 1.6673-10.787 5.8499-17.112 9.2947s-15.775 8.5214-21 11.281c-5.225 2.7599-12.65 6.7507-16.5 8.8685-7.5249 4.1392-12.339 6.4901-23 11.231-0.55 0.24459-0.3509-0.34142 0.44244-1.3022zm609.72-9.1976c-2.6088-1.4116-2.6962-1.6366-1.0922-2.8096 1.5797-1.1551 1.25-1.6653-3.5039-5.423-6.1936-4.8957-4.9735-5.55 1.7518-0.93947 6.7024 4.5949 8.4076 6.3737 8.021 8.3676-0.4659 2.4032-1.8305 2.6152-5.1768 0.80453zm-62.6-5.4112c-3.1281-6.1557-3.4543-7.5081-1.4869-6.1651 2.2206 1.5158 6.6172 10.401 5.6334 11.385-0.65405 0.65405-2.0626-1.1192-4.1466-5.2201zm-608.12 3.4609c-9.0269-10.915 11.005-35.913 26.456-33.014 5.2861 0.99168 4.5642 2.5682-5.1535 11.255-12.741 11.389-17.25 16.135-17.25 18.156 0 3.5184-2.376 5.6314-4.0526 3.604zm628.06-1.3804c-1.9215-1.5929-3.195-3.1948-2.8299-3.5598 0.36501-0.36502 2.3871 0.93819 4.4936 2.896 4.5858 4.2622 3.2973 4.7764-1.6637 0.66382zm-35.95-13.3c-0.69491-2.3375-1.8777-6.05-2.6284-8.25-3.0336-8.8904-7.1735-42.394-5.7097-46.209 1.6306-4.2494 4.2814-0.31895 4.2814 6.3482 0 2.4616 0.42398 7.4873 0.94217 11.168 0.5182 3.681 1.4494 10.518 2.0693 15.193s1.7709 11.514 2.5578 15.197c2.3002 10.768 1.1814 15.615-1.5126 6.5526zm-606.18-7.11c-0.83293-1.8281-0.70936-3.0702 0.54712-5.5 2.213-4.2795 5.0517-4.2887 4.1967-0.0136-0.34375 1.7188-0.625 4.1938-0.625 5.5 0 3.1125-2.7028 3.1215-4.1188 0.0136zm44.12-15.66c0-1.3388 4.8284-3.444 13.75-5.9953 4.6317-1.3245 7.25-2.5871 7.25-3.4961 0-5.0365 9.7795-11.252 25.479-16.195 10.962-3.4508 12.699-4.4794 17.274-10.225 2.1851-2.7444 6.6852-7.2561 10-10.026 3.4413-2.8755 6.3112-6.1675 6.689-7.6729 1.1426-4.5525 8.0698-13.701 14.945-19.737l6.6131-5.806v-7.3887c0-8.4055 2.6583-15.386 6.6786-17.538 4.0285-2.156 4.8539-0.0511 2.8635 7.3022-3.4252 12.654-2.2963 13.729 9.3116 8.871 10.947-4.5816 16.979-3.6985 6.7862 0.99359-15.186 6.9909-17.047 9.6778-14.463 20.875 1.4526 6.293 0.31375 8.1892-3.6457 6.0701-2.3475-1.2564-2.88-1.0432-8.2702 3.3109-3.1686 2.5595-10.42 7.9204-16.114 11.913-5.6943 3.9926-12.547 9.0908-15.229 11.329-2.6818 2.2385-6.1229 4.6968-7.6468 5.463s-5.0722 2.8755-7.8851 4.6873-7.5647 4.1372-10.56 5.1676c-10.609 3.6499-16.956 7.2173-18.997 10.678-1.6622 2.8173-2.819 3.4918-7.6438 4.4572-3.1268 0.62562-7.9043 1.7765-10.617 2.5574-5.8732 1.6911-6.5685 1.7338-6.5685 0.40375zm93.757-58.358c2.6085-1.3056 6.4302-3.0983 8.4927-3.9838 2.5882-1.1112 3.75-2.2444 3.75-3.6576 0-5.264-6.6775-2.9267-14.59 5.107-5.3573 5.4391-4.7548 6.0894 2.3477 2.5344zm-107.95 48.161c-0.80647-1.2578-2.5438-4.9869-3.8607-8.2869-2.7688-6.9384-4.467-10.011-7.4611-13.5-6.5048-7.5799-17.234-28.361-20.554-39.812-1.0067-3.4717-4.0437-10.447-6.7489-15.5-2.7052-5.0533-6.3529-13.756-8.1059-19.339-2.3697-7.5472-4.0326-11.022-6.4822-13.544-1.8122-1.8659-3.56-4.0479-3.8841-4.8487-0.49371-1.2201-0.81989-1.1724-2.0123 0.29389-2.0878 2.5675-2.3633 2.2626-3.0283-3.3524-0.33237-2.8064-1.745-7.049-3.1393-9.4281-2.6303-4.4883-3.2331-7.92-1.5714-8.9469 1.3682-0.84557 5.0365 3.1009 5.0365 5.4184 0 2.3532 1.8158 3.7026 2.5184 1.8716 1.0581-2.7573-2.8895-12.294-5.2265-12.627-1.2144-0.17273-3.0988-1.7554-4.1876-3.5171-4.9795-8.057-15.715-10.666-28.516-6.929-4.3991 1.284-5.0044 1.268-5.7997-0.1531-1.204-2.1515-3.1095-1.9947-5.31 0.43687-1.404 1.5514-1.5568 2.2982-0.65499 3.2 1.6 1.62 1.476 3.79-0.222 3.79-0.76538 0-1.6552 1.0503-1.9774 2.3341-0.78494 3.1274-6.4642 10.163-8.2144 10.177-0.76865 0.006-2.747 1.6477-4.3964 3.6487-2.784 3.38-15.274 11.49-21.02 13.66-3.629 1.37-14.1 8.52-16.924 11.57-2.921 3.14-4.076 3.3-4.076 0.55 0-2.2634 8.2398-10.695 12.704-13 5.0745-2.62 21.73-13.124 25.342-15.983 1.9505-1.5436 4.3478-2.7287 5.3273-2.6337 1.2786 0.12408 2.3212-1.2372 3.6971-4.8272 1.0539-2.75 2.7067-5.5834 3.6727-6.2964 0.96606-0.71304 1.7622-1.9196 1.7692-2.6813 0.03029-3.3067 6.8556-10.545 10.934-11.595 2.2293-0.57416 6.685-1.9323 9.9015-3.0182 7.6671-2.5883 14.189-3.467 15.076-2.0312 0.73022 1.1815 0.71071 1.1915-11.925 6.0751-4.4 1.7006-6.65 2.8576-5 2.571 1.65-0.28662 6.4029-0.77505 10.562-1.0854l7.5621-0.56428 6.9379 6.8609c12.219 12.083 17.147 23.156 12.414 27.889-0.69911 0.69911 0.13037 2.5366 2.6126 5.7874 3.6375 4.764 6.9458 5.3231 4.5044 0.76134-1.5602-2.9152-1.365-3.3892 0.89701-2.1786 2.2254 1.191 5.0104 5.9909 5.0104 8.6355 0 2.6084 5.3337 13.37 6.6265 13.37 1.441 0 5.7828 11.491 5.0568 13.383-0.30023 0.78238 0.0839 2.2538 0.85364 3.2697 0.76973 1.016 1.4138 2.5584 1.4313 3.4277 0.0175 0.86929 1.1406 3.7706 2.4957 6.4473s2.7616 6.2405 3.1254 7.9195c0.36384 1.679 1.6176 4.748 2.7861 6.8199 1.741 3.0872 1.8776 3.9234 0.75657 4.632-1.091 0.6896-0.88849 1.3098 1 3.0628 7.6545 7.105 9.5146 9.1954 13.837 15.55 5.7951 8.5187 8.8039 15.292 9.915 22.321 1.4427 9.1262-0.91238 14.883-4.0723 9.9545zm-169.81-1.2c0-0.78014 1.4625-2.3318 3.25-3.4482 3.4428-2.1502 17.931-16.625 24.085-24.063 5.5959-6.7635 4.7231-10.264-5.5653-22.32-3.7681-4.4156-4.4848-5.7478-3.0882-5.7403 3.6611 0.0195 10.329 6.6756 14.369 14.344 4.8469 9.1998 4.8479 8.9484-0.05502 14.267-2.2027 2.3896-5.1706 6.8067-6.5953 9.8158-1.5414 3.2555-4.0704 6.5625-6.2451 8.1663-2.011 1.49-4.106 3.21-4.656 3.84-3.52 4.02-15.5 7.99-15.5 5.14zm-9.7861-8.33c-2.8369-4.06-3.3819-7.57-2.2518-14.52 0.5567-3.43 1.4224-12.08 1.9238-19.23 1.7065-24.34 10.222-53.79 14.356-49.66 1.8306 1.8306 3.4906 1.3576 4.1264-1.1757 1.669-6.64 23.662-24.66 30.103-24.66 1.4253 0-2.7397 4.0749-7.4707 7.3091-7.7493 5.2975-17 14.754-17 17.378 0 1.3035-1.3147 4.9743-2.9215 8.1574-5.918 11.73-17.079 49.38-17.079 57.63 0 1.5023-0.69468 4.1954-1.5437 5.9847-1.4313 3.0163-1.3939 3.6332 0.51407 8.4738 2.8077 7.1233 1.0869 9.8236-2.7564 4.3252zm702.73-5.25c-1.4074-0.39623-4.1074-1.4204-6-2.276-1.8926-0.85559-5.4661-2.4177-7.9411-3.4713-5.9826-2.5469-8.9025-12.114-6.015-19.709 2.7282-7.1758 7.5021-3.0767 6.5528 5.6265-1.08 9.83 1.93 13.83 10.39 13.83 1.4791 0 3.6742 0.91753 4.8779 2.039 3.5544 3.3114 2.6481 5.2287-1.8704 3.9566zm-597.25-2.65c-0.38-0.37-0.69-3.96-0.69-7.96 0-8.983-1.2504-10.006-4.109-3.3607-2.8771 6.6879-3.9898 4.706-2.3094-4.1132 2.3968-12.579 4.7944-15.798 8.3751-11.246 3.5537 4.5178 2.3282 30.279-1.2693 26.682zm-45.976-13.87c-0.31305-1.091-0.87158-4.3651-1.2412-7.2758-0.76184-5.9999-2.3068-7.5001-9.3435-9.0727-5.994-1.33-7.652-3.13-2.894-3.13 1.9992 0 4.7853 0.43738 6.1913 0.97195 3.411 1.3 5.574 0.33 5.574-2.5 0-4.3735-1.0445-5.4118-6.1212-6.0853-5.6643-0.7514-6.8372-1.8062-3.81-3.4263 3.2009-1.7131 13.907-0.27265 14.01 1.885 0.68611 14.312-0.91464 33.691-2.3653 28.635zm23.916-4.73c-1.7424-6.5017 1.2138-19.059 5.5935-23.76 2.9126-3.1263 4.6788-1.1015 2.8558 3.2738-3.5119 8.4286-6.0303 16.535-6.0538 19.486-0.02959 3.7246-1.5008 4.3388-2.3955 1zm293.12-15.36c-4.163-1.2668-1.1326-2.3872 6.5-2.4032 21.635-0.0454 52.85-6.645 61.896-13.086 4.2002-2.9908 6.1783-1.0278 2.448 2.4294-8.8601 8.2113-57.382 17.156-70.844 13.06zm312.25-1.19c0-1.2379 9.3421-12.5 10.75-12.959 3.0495-0.99496 0.80038 3.7712-4.0314 8.543-5.1 5.04-6.72 6.11-6.72 4.42zm-560-3.0864c0-3.9758 9.4453-6.4893 12.345-3.2852 2.6185 2.8935 1.9864 3.854-2.9846 4.5353-7.72 1.06-9.36 0.84-9.36-1.25zm-72-11.67c-2.475-0.71461-5.7375-1.0701-7.25-0.78994-2.9684 0.54979-3.7685-1.231-1.55-3.4496 3.06-3.06 16.852 0.11436 17.61 4.0532 0.40155 2.0851-2.0541 2.137-8.8102 0.18628zm687.97-2.2636c-1.239-1.0033-2.069-2.3752-1.8445-3.0487 0.25339-0.76016 1.5159-0.0684 3.329 1.8242 3.1786 3.3177 2.1491 4.1669-1.4845 1.2246zm0.03-8.55c-13.17-11.056-14.321-15.287-2.2825-8.3883 5.7111 3.2727 6.9858 4.415 6.1075 5.4733-0.61048 0.73559-0.93334 1.4723-0.71746 1.6371 0.21587 0.16482 1.855 1.3096 3.6425 2.5439 3.2345 2.2336 4.3825 5.1433 2 5.0692-0.6875-0.0214-4.625-2.8722-8.75-6.3353zm-678.56 0.9c-1.0676-0.8075-3.1786-1.4825-4.6911-1.5-2.7384-0.0317-3.6534-1.3554-1.75-2.5318 0.55-0.33992 1-1.4915 1-2.559 0-2.8763 2.1994-2.3622 5.8038 1.3566 4.5649 4.7098 4.2849 8.7495-0.3627 5.2342zm422.06-1.53c-0.33992-0.55-2.3291-1-4.4204-1-3.4236 0-3.7587-0.22807-3.3645-2.2901 0.67134-3.5119-3.4915-5.3931-8.5683-3.872-5.418 1.6233-6.5583 1.4991-12.635-1.3755-6.0508-2.8625-10.629-2.6271-9.8105 0.50444 0.76952 2.9426-1.5102 3.3457-5.4845 0.96964-2.0444-1.2222-6.1921-3.5814-9.2171-5.2426-7.9089-4.3432-12.083-7.278-11.367-7.9931 3.02-3.02-18.05-16.7-25.72-16.7-1.1 0-1.91-0.69-1.91-1.63 0-1.9234 8.0469-1.3621 17.203 1.2001 2.9133 0.81525 8.672 2.3416 12.797 3.392 8.5933 2.1881 25 9.4835 25 11.117 0 1.4366-6.6681 0.39459-14.265-2.2293-7.9903-2.7597-10.496-2.0704-4.7283 1.3006 8.0256 4.6904 17.135 8.0571 20.421 7.547 1.6898-0.2624 5.3949-0.0226 8.2336 0.53279 4.5114 0.88273 6.1033 0.69314 12.643-1.5058 8.1715-2.7474 11.87-2.2137 12.476 1.8003 0.81176 5.3834 1.5577 6.663 5.2388 8.9868 4.3625 2.7539 5.0294 4.8566 2.0468 6.4529-2.4322 1.3017-3.7766 1.312-4.5657 0.0352zm-405.5-6.61c0-5.31 24.25-24.39 30.98-24.39 2.7664 0 2.1961 1.9226-1.1738 3.9568-2.4178 1.4595-14.333 10.872-23.476 18.544-4.569 3.83-6.33 4.36-6.33 1.89zm428-15.242c0-2.917 10.165-17.303 16.858-23.859 5.4707-5.3584 11.037-9.3741 33.284-24.011 2.0035-1.3181 5.7455-4.6175 8.3155-7.332 2.5701-2.7145 6.6684-6.3084 9.1073-7.9864 2.439-1.678 4.4345-3.5282 4.4345-4.1114 0-1.6024-5.0231-0.0507-8.5688 2.647-5.9085 4.4954-19.756 5.137-36.431 1.6881-12.584-2.6027-13.973-2.4865-15.556 1.3008-2.0292 4.8565-1.8152 6.2107 1.0967 6.9416 3.4644 0.86949 2.1175 2.5791-2.0318 2.5791-6.4444 0-9.8279 8.17-3.8385 9.2687 1.5562 0.28546 5.3044 1.2182 8.3294 2.0727 3.025 0.85453 6.7375 1.8109 8.25 2.1252 3.3053 0.68693 3.6695 2.5334 0.49963 2.5334-2.8501 0-14.421-2.4064-19.277-4.009-5.3896-1.7787-29.785 1.8976-29.921 4.509-0.0749 1.442 13.786 2.9872 14.252 1.5888 0.52044-1.5613 2.2907-1.3419 3.598 0.44597 0.65209 0.89179 4.6783 2.1919 9.6102 3.1034 10.623 1.9632 10.988 2.0737 10.988 3.3305 0 1.4893-5.9969 1.2672-12.663-0.46894-6.9835-1.819-8.9217-1.3287-9.677 2.448-0.31773 1.5887-1.9463 4.4472-3.6191 6.3524-3.9629 4.5135-3.8404 5.4077 0.91639 6.6886 4.3269 1.1651 6.3054 3.0114 3.227 3.0114-1.0633 0-3.8464-0.675-6.1847-1.5-6.2298-2.198-8-1.9767-8 1 0 3.9692-2.039 2.9846-8.9996-4.3457-5.8436-6.154-7.2315-7.0713-13.735-9.0786-3.9793-1.2281-9.949-3.5475-13.266-5.1543-3.32-1.62-6.28-2.93-6.58-2.93-0.29982 0-4.3693-1.8-9.0432-4-4.674-2.2-8.6852-4-8.9139-4s-3.3634-1.35-6.9659-3c-3.6026-1.65-7.0154-3-7.5841-3-0.56869 0-0.74455-0.4683-0.3908-1.0407 0.89663-1.4508 2.1494-0.99405 27.475 10.017 25.273 10.988 32 12.784 32 8.5455 0-6.5006 6.4442-13.764 13.364-15.062 6.54-1.23 2.73-5.46-4.91-5.46-1.9 0-3.45-0.5-3.45-1.12 0-1.2748 8.3709-0.79542 19.295 1.105 7.855 1.3664 12.108-0.19961 11.516-4.2408-0.43247-2.9537-18.055-7.5499-29.502-7.6947-4.3762-0.0553-6.4323-1.408-3.7215-2.4482 2.9682-1.139 9.0829-0.60315 21.494 1.8836 17.679 3.5423 16.418 3.8638 20.557-5.2383 1.9387-4.2625 4.2294-8.5338 5.0906-9.4917 1.8642-2.0737 1.302-12.33-1.304-23.787-1.8454-8.1138-3.232-9.4082-11.123-10.383-6.4056-0.79171-17.565-4.3403-26.646-8.473-9.1496-4.1641-8.6299-4.3157-19.026 5.551-9.5282 9.0429-11.618 12.088-7.5698 11.029 5.4341-1.4211 7.743 3.2624 3.5502 7.2014-1.314 1.2344-2.661 3.6046-2.9936 5.2671-0.3325 1.6625-1.9574 4.2865-3.611 5.8312-3.66 3.42-3.73 4.01-0.51 4.01 3.6613 0 3.0507 1.7398-1.25 3.562-4.65 1.97-22.35 5.44-27.75 5.44-2.5368 0-6.6509 1.2834-11.22 3.5-3.9681 1.925-8.6166 3.5-10.33 3.5-3.8174 0-18.997 3.7957-20.643 5.1618-1.7537 1.4554-5.7349 0.59906-6.0989-1.3118-0.19863-1.0428 1.9135-3.3642 5.7398-6.3084 5.7232-4.4039 7.3616-6.5416 5.0136-6.5416-0.57227 0-2.3521 0.96971-3.9552 2.1549-2.7282 2.0171-3.6835 2.1163-14.932 1.5507-12.156-0.61121-15.118 0.0779-11.55 2.6871 1.9539 1.4287 1.2391 5.6073-0.95917 5.6073-2.1006 0-11.357-7.8524-14.562-12.354-4.9918-7.0097-6.6539-8.5688-11.222-10.527-5.004-2.145-9.0416-6.4892-12.148-13.071-1.1721-2.4832-3.3385-5.5498-4.8143-6.8146-1.4758-1.2649-3.189-3.8324-3.8073-5.7055-2.1288-6.4505-11.458-8.4581-27.129-5.8383-8.5303 1.426-15.845 5.6962-25.176 14.696-11.087 10.695-16.022 13.341-14.205 7.616 0.85936-2.7076 13.496-15.41 19.767-19.87 2.6038-1.8517 4.7341-3.9892 4.7341-4.75 0-1.6803 1.1249-1.7257 6.0671-0.24496 3.3492 1.0034 4.9027 0.77784 13.116-1.9046 5.1243-1.6736 11.284-3.2753 13.688-3.5593 6.182-0.73048 7.0414-1.9335 4.6166-6.462-2.6294-4.9107-7.13-5.4383-15.134-1.7741-3.0777 1.409-6.4324 2.5619-7.4548 2.5619-2.4149 0-9.9521 2.9292-11.978 4.6551-0.86831 0.73969-2.1687 1.3449-2.8898 1.3449-1.642 0-3.9575 2.9685-3.9997 5.1276-0.13948 7.1383-4.7646 3.2213-6.1178-5.181-1.2172-7.5583-0.59876-8.446 5.886-8.4481 3.3239-0.001 5.6612-0.6867 7.983-2.3416 1.887-1.345 6.7771-3.0619 11.5-4.0375 4.5194-0.93363 9.2629-2.2761 10.541-2.9833 11.529-6.3783 27.226 10.572 27.687 29.899 0.32782 13.731 4.8865 22.918 12.372 24.934 2.0609 0.55495 4.8428 2.1781 6.182 3.607 2.6239 2.7997 7.4508 2.8845 20.435 0.35906 2.75-0.53488 10.175-1.1401 16.5-1.3449 19.048-0.61678 36.629-3.5792 42.5-7.1612 1.1-0.67114 3.125-1.5496 4.5-1.9522 1.375-0.40258 5.5127-2.9114 9.1949-5.5752s8.8572-5.8934 11.5-7.177c6.3452-3.0818 25.35-18.455 24.735-20.009-0.26462-0.66843-4.5944-4.1403-9.6218-7.7153-11.294-8.0312-26.427-22.789-31.402-30.623-2.0528-3.2324-5.7988-8.1554-8.3244-10.94-7.7945-8.5941-13.258-21.457-10.629-25.025 2.026-2.7497 7.0023 2.2839 12.672 12.818 3.3431 6.2113 6.1082 9.6413 12.213 15.15 4.3403 3.9163 10.878 9.8254 14.527 13.131 6.853 6.2072 29.003 18.308 31.119 17 2.1532-1.3308 0.80734-3.5556-4.7327-7.8232-7.8846-6.0737-21.053-20.048-23.099-24.513-0.9261-2.0209-3.6444-6.9979-6.0406-11.06-6.3477-10.761-12.09-29.639-12.122-39.854-0.0147-4.654-2.3408-13.624-4.3141-16.635-3.2825-5.0097-22.827-7.7505-33.654-4.7194-11.893 3.3297-22.655-0.28148-38.257-12.838-15.308-12.32-19.595-12.869-36.915-4.731-5.3086 2.4944-11.188 4.8234-13.065 5.1756-5.3924 1.0116-5.437 1.0919-11.694 21.035-3.2703 10.423-7.7998 23.002-10.066 27.952-2.2657 4.95-4.5117 9.9-4.991 11-0.47933 1.1-3.621 7.6659-6.9816 14.591-3.3605 6.925-7.2352 16.795-8.6103 21.933-3.0516 11.403-6.3897 15.879-6.4629 8.6667-0.0219-2.1543-0.0542-2.1494-1.9316 0.29408-2.9016 3.7764-3.8199 1.4266-1.2651-3.2374 2.9662-5.4151 1.654-6.6005-3.9233-3.5444-8.706 4.7704-11.367 5.1457-30.05 4.2376-25.548-1.2417-37.794-0.74231-40.372 1.6464-1.1354 1.052-2.5138 1.9128-3.0629 1.9128-0.54915 0-2.3202 1.3998-3.9356 3.1106s-5.0107 4.5233-7.5452 6.25c-11.648 7.9353-16.558 23.831-8.8167 28.539 1.6914 1.0286 3.7324 2.8085 4.5357 3.9553 2.3885 3.4101 9.9399 6.1098 28.389 10.149 5.225 1.144 12.78 2.8074 16.789 3.6965 4.0089 0.88908 7.5545 2.0461 7.879 2.5711 0.75295 1.2183-10.207 0.033-17.668-1.9109-3.025-0.78808-8.65-1.646-12.5-1.9065-8.3476-0.56477-13.434-1.9842-19.5-5.442-2.475-1.4107-6.6911-3.6781-9.3691-5.0387-3.3836-1.719-5.9409-4.0711-8.3821-7.7095l-3.513-5.2358 4.1683-8.2642c5.248-10.405 5.2458-10.402 13.308-16.123 3.6918-2.6196 7.7638-5.973 9.049-7.452 4.6732-5.3782 6.7925-6.6314 11.564-6.8383 2.571-0.11147 11.425-1.381 19.675-2.821 8.25-1.4401 18.376-3.016 22.503-3.5021 21.573-2.5409 39.567-13.813 43.943-27.528 1.2284-3.85 3.0931-8.9076 4.1437-11.239 1.0506-2.3315 1.9102-4.6807 1.9102-5.2204 0-0.53969 1.0844-3.3571 2.4098-6.2609s3.3896-8.2046 4.587-11.78c9.1691-27.375 17.07-40.282 27.003-44.109 7.4298-2.8629 26.58-3.7456 31.205-1.4383 1.7063 0.85121 4.1415 1.5476 5.4117 1.5476 2.7673 0 12.274 3.6217 14.383 5.4793 3.7023 3.2611 19.462 6.4414 34.508 6.9635 7.1299 0.24742 11.265 1.0677 19.833 3.9349 5.9538 1.9923 11.074 3.6223 11.378 3.6223 1.1285 0-0.76669-8.7326-3.4492-15.894-3.1937-8.5256-7.5811-13.088-9.4221-9.7986-1.0509 1.8778-0.94786 2.0114-10.096-13.091-1.0939-1.8059-4.073-4.6847-6.6203-6.3972-8.25-5.535-15.47-13.82-12.06-13.82 0.64998 0 0.9169-0.86199 0.6193-2-0.38794-1.4835-0.0307-2 1.3834-2 2.8488 0 2.322-2.1732-1.2357-5.0976-5.974-4.9105-1.1152-3.9498 6.6891 1.3227 22.481 15.188 42.5 42.898 43.836 60.679 0.62818 8.3582 8.2935 14.376 14.361 11.275 5.8785-3.0047 10.803-2.1299 20.731 3.6826 8.7965 5.1498 10.753 7.402 9.9856 11.494-0.852 4.5416 7.282 10.092 10.509 7.1712 1.0006-0.90549 4.5406-2.4703 7.8667-3.4774 10.16-3.08 12.16-5.07 12.16-12.14v-5.9539l-4.6532-2.951c-2.5593-1.623-6.2718-3.4675-8.25-4.0988-1.9782-0.63128-4.0468-1.601-4.5968-2.1548-2.0115-2.0257 7.5724 0.28965 12.481 3.0151 5.5399 3.0763 9.9637 1.5615 7.4037-2.5352-1.1474-1.8362-1.8881-2.272-12.884-7.5815-14.55-7.04-20.11-10.66-16.34-10.66 0.63546 0 6.7497 2.7 13.587 6 12.444 6.0058 14.681 6.741 15.666 5.1473 0.92409-1.4952-1.6057-3.5963-15.08-12.524-14.218-9.4208-16.107-11.024-14.305-12.138 0.61684-0.38123 3.4512 0.77725 6.2986 2.5744s7.0357 4.3274 9.3074 5.6228 6.2583 4.2283 8.8591 6.5176l4.7288 4.1624 1.8095-2.3989c3.03-4.02 1.31-5.47-15.28-12.837-3.71-1.649-6.75-3.469-6.75-4.046 0-1.0294 7.2039 1.4254 13.041 4.4436 1.57 0.813 3.49 1.479 4.26 1.479 0.76707 0 2.1864 0.87486 3.1541 1.9441 0.96768 1.0693 2.7065 2.0818 3.864 2.25 3.9181 0.56943 4.6439 9.6812 2.0672 25.95-1.4924 9.4229-1.4924 10.75 0 16.933 2.134 8.8415 2.0456 11.392-0.5554 16.02l-2.1747 3.8694 2.5859 5.256c1.4222 2.8908 2.3865 5.5787 2.1427 5.9731-0.70258 1.1368-3.2503-0.21645-3.8366-2.0379-2.7435-8.5224-17.489-15.176-18.825-8.494-1.0971 5.4856-6.951 12.623-15.163 18.488-4.3702 3.1211-8.3301 6.7136-8.7998 7.9833-1.0873 2.9392-2.8472 4.0328-4.4069 2.7384-2.3921-1.9853-5.6484 0.90271-5.0439 4.4734 1.3621 8.0456 5.3255 14.239 12.177 19.029 8.2705 5.7815 9.0846 5.7721 10.923-0.12533 3.8214-12.257 7.2888-20.948 9.1056-22.822 1.095-1.1295 3.116-3.9612 4.491-6.2927 10.676-18.103 12.059-15.793 9.201 15.364-1.7718 19.314-1.2792 24.979 3.0436 35 5.3177 12.328 8.8232 13.655 17.434 6.6034 1.7484-1.4318 4.1388-3.2784 5.312-4.1034l2.133-1.5-4.062-9.7448c-2.24-5.36-4.07-10.32-4.07-11.02 0-0.69853-0.92855-3.0025-2.0634-5.12-3.4945-6.52-6.0215-15.813-4.7248-17.376 1.38-1.6627 1.0747-12.195-0.40516-13.978-0.80042-0.96446-0.39484-1.9877 1.5973-4.0298 1.4686-1.5054 3.4812-3.8219 4.4724-5.1478l1.8023-2.4107 2.1607 2.1607c2.8677 2.8677 2.7245 4.7507-0.61516 8.0904-4.0481 4.0481-4.1033 19.852-0.0963 27.57 3.3566 6.466 5.5109 13.285 6.95 22 0.75893 4.5957 2.0296 8.1657 3.6996 10.394 2.7515 3.6711 4.1412 8.487 4.9311 17.088 0.34389 3.7447 1.2401 6.3571 2.8283 8.2446 1.2787 1.5197 2.5964 3.6183 2.9282 4.6637 1.2014 3.7851 10.861 7.7554 15.121 6.215 2.7537-0.99574 6.4914-1.1627 14.463-0.64603 10.305 0.66786 10.95 0.58996 15.592-1.8811 2.67-1.42 5.37-2.58 6.01-2.58 1.598 0 4.9168-4.3102 10.839-14.076 4.0662-6.7058 6.5505-9.4554 13.397-14.828 4.623-3.6276 10.75-8.6206 13.616-11.096 2.8656-2.475 6.8539-5.7604 8.8628-7.3008 5.4084-4.1471 6.7606-6.8579 7.702-15.441 0.92076-8.3947 2.7161-16.191 4.0777-17.709 1.3769-1.5342 0.9778-4.55-0.60212-4.55-0.87076 0-1.7182-1.4049-2.1113-3.5-0.65-3.47-2.43-4.91-2.43-1.97 0 3.1389-5.0427 11.333-8.8117 14.318-2.8838 2.284-4.4895 4.7209-6.1729 9.3681-3.5772 9.8756-8.9848 16.015-11.127 12.634-1.54-2.42-0.94-3.85 1.61-3.85 2.6265 0 3.7987-5.0793 1.5-6.5-0.55-0.33992-0.96447-1.604-0.92105-2.809 0.0695-1.9291 0.199-1.8623 1.0833 0.55902 1.5944 4.3655 4.0816 3.6008 3.2526-1-0.37163-2.0625-1.0151-4.2-1.4298-4.75-3.0482-4.042-1.7461-10.5 2.1171-10.5 10.943 0 15.888-9.3813 8.8978-16.878-2.2-2.3593-4-5.0619-4-6.0058 0-0.94388-0.47237-2.1885-1.0497-2.7659-3.83-3.83-1.6-34.35 2.51-34.35 2.0963 0 4.5385-3.5154 4.5704-6.5787 0.0261-2.5056 0.1783-2.6671 1.0699-1.1352 0.57171 0.98233 2.8417 2.5072 5.0445 3.3886 8.6287 3.4525 17.127 32.089 10.3 34.708-1.1705 0.44917-1.4797 1.7742-1.25 5.357 0.36254 5.6544 2.1733 6.3538 2.6156 1.0102 0.19393-2.3432 0.82062-3.75 1.6705-3.75 1.8603 0 2.8602-5.2399 2.0415-10.699-0.516-3.4409-0.38517-4.3342 0.55011-3.7562 2.5612 1.5829-1.4512-27.955-4.2103-30.995-0.53848-0.59328-1.3129-0.4994-2.0623 0.25-1.909 1.909-2.8026 1.4381-4.3644-2.3-1.8765-4.4911-3.6957-4.4294-9.3712 0.31781-8.2463 6.8975-10.684 4.1462-5.5127-6.2214 0.8-1.6 1.45-4.273 1.45-5.942v-3.0349l2.039 2.1886c3.1029 3.3305 5.2901 2.884 4.7252-0.9646l-0.46278-3.1532 1.9327 2.6532c3.5723 4.9039 5.7419 3.5122 3.1242-2.0041-1.2302-2.5925-1.3555-3.7456-0.5-4.6011 2.9-2.907-4.78-11.742-10.22-11.742-2.0243 0-2.7348-0.77563-3.8929-4.25-1.6739-5.0216-3.1302-5.4819-3.5542-1.1234-0.16729 1.7196-1.3666 4.1246-2.665 5.3445l-2.3609 2.2179-1.7-2.5945c-2.4-3.661-3.47-3.227-3.47 1.406 0 2.8889-0.41667 4-1.5 4-0.825 0-1.5-0.84426-1.5-1.8761 0-11.81-25.28-44.357-38.5-49.568-1.2941-0.51012-1.554-0.95478-0.73637-1.2598 4.5493-1.6973 22.381 11.869 33.146 25.217 1.5033 1.8641 2.5692 2.5157 2.8348 1.7331 0.54036-1.5925-7.6344-13.106-12.527-17.644-6.87-6.364-16.88-14.377-19.98-15.979-4.38-2.261-6.87-10.623-3.17-10.623 0.52232 0 3.5333 2.3719 6.691 5.2709s9.3413 8.2487 13.741 11.888c8.8534 7.3231 15.611 17.595 17.563 26.699 0.6178 2.8807 2.2285 6.11 4.0329 8.0855 3.4481 3.7752 4.5938 3.4735 3.0985-0.81608-0.81938-2.3505-0.73877-3.0887 0.38438-3.5197 2.09-0.802 1.8219-1.7442-2.5386-8.9217-2.1779-3.5849-4.2633-7.7934-4.6343-9.3522-0.37097-1.5588-1.3588-3.6217-2.1952-4.5842-2.0954-2.4115-0.048-2.3129 5.6485 0.27196 4.8432 2.1977 6.5765 2.492 5.627 0.95566-0.89191-1.4431-12.129-7.0015-12.799-6.3311-0.30458 0.30459-1.1417 0.19045-1.8602-0.25364-2.7799-1.7181 3.7657-1.9759 8.3135-0.32747 18.779 6.8066 31.672 26.729 25.288 39.075-2.0817 4.0255-1.4546 5.2467 4.6108 8.9788 5.295 3.258 7.2121 6.2073 6.3006 9.6928-0.37366 1.4289 0.67628 3.3347 3.5618 6.465 3.4046 3.6935 4.5968 6.184 7.0998 14.831 5.7551 19.882 5.4268 23.86-4.6372 56.2-4.7602 15.296-4.6444 16.69 1.3866 16.7 2.6125 0.004 8.575 0.46812 13.25 1.031 6.1839 0.74455 11.75 0.6866 20.426-0.21267 11.094-1.1498 12.944-1.0746 26.5 1.0774 8.0156 1.2724 18.849 2.6645 24.074 3.0936 18.906 1.5526 39.699 4.7078 40.597 6.1603 3.2672 5.2864-46.183 4.809-56.418-0.54468-1.8264-0.95539-4.3014-1.6266-5.5-1.4916-1.1986 0.13499-5.1445-0.0901-8.7688-0.50013-5.7955-0.65573-7.6633-0.39187-15.5 2.1897-4.9007 1.6144-11.25 3.2566-14.11 3.6493-6.3378 0.87039-6.7634 1.3665-8.1839 9.5402-0.62129 3.575-1.3708 7.4-1.6655 8.5-0.53281 1.9885 4.5362 10.615 11.253 19.151 7.9751 10.135 10.877 18.349 6.4823 18.349-2.6803 0-5.9936 3.753-3.9915 4.5213 3.7527 1.44 16.805-3.7522 16.805-6.685 0-0.56515-0.83117-2.222-1.847-3.6819-2.5685-3.6911-4.2545-8.9736-3.0932-9.6913 0.51715-0.31962 0.94027-1.4546 0.94027-2.5221 0-3.0604 25.939 7.6652 29.806 12.325 3.8073 4.5875-1.0926 3.6534-11.763-2.2424-6.1637-3.4056-11.491-5.9075-11.839-5.5597-1.0609 1.0609 1.2134 3.7542 4.7895 5.6721 6.6346 3.5582 6.6598 3.895 0.81045 10.82-7.1422 8.4549-13.481 10.2-23.303 6.4157-4.7105-1.8151-18.17-1.8422-25.301-0.051-4.61 1.1579-15.046 0.89292-33.449-0.84918-10.293-0.97438-10.142-0.21417 2.247 11.342 41.569 38.773 29.245 63.47-34.997 70.134-8.4967 0.8813-23.204-0.91132-25.649-3.1262-2.5117-2.2755-6.9995-3.8918-8.8424-3.1846-1.7911 0.6873-2.0058 3.0326-0.32877 3.5916 3.8233 1.2744-0.44062 3.7734-6.4384 3.7734-7.183 0-15.896 2.0181-21.869 5.065-5.8701 2.9947-6.0826 1.4718-0.52721-3.7772 4.4469-4.2016 4.9347-6.1879 1.5404-6.2725-2.3954-0.0597-25.432 19.911-30.718 26.629-6.0802 7.7285-3.8691 7.1913 4.1946-1.0191 8.1719-8.3206 14.369-13.226 15.403-12.193 1.4552 1.4552-19.038 19.212-23.723 20.556-2.57 0.71-3.06 0.57-3.06-0.87zm-16.755-21.718c5.9844-7.8695 4.4228-10.016-7.7296-10.625l-5.9847-0.29985-1.1368 3.4696c-3.4636 10.572 8.076 16.364 14.851 7.455zm157.08-27.789c3.5465-1.4818 8.6712-6.9265 8.6712-9.2127 0-1.9147-2.4375-1.806-4.0875 0.1822-1.5141 1.8244-10.944 6.3071-15.338 7.2909-1.6089 0.36027-3.1089 1.206-3.3333 1.8793-0.57418 1.7225 9.8785 1.6189 14.087-0.13973zm-76.305-19.929c14.687-8.7926 14.816-8.6775-9.6966-8.625-26.074 0.0559-23.981 0.17214-22.556-1.2536 0.82843-0.82843 6.9144-1.1187 20.786-0.99145 19.336 0.1774 27.366-1.4657 13.865-2.8371-4.7067-0.47808-4.9793-0.67402-6.2185-4.4695-1.746-5.3476-8.2536-6.9868-12.963-3.2654-0.69253 0.54724-8.105 4.424-16.472 8.6149-24.498 12.271-23.272 16.19 5.7312 18.325 16.35 1.2039 16.318 1.2104 27.524-5.4983zm59.98-1.74c0-2.5892-1.9297-3.326-5.3276-2.0342-4.23 1.6-3.43 4.06 1.33 4.06 3.3539 0 4-0.3281 4-2.0314zm14.569-0.0804c0.37792-0.6115 0.0912-1.4801-0.6371-1.9302-1.5929-0.98449-5.233 0.74597-4.401 2.0922 0.80708 1.3059 4.1983 1.1969 5.0381-0.16197zm-290.05-2.85c-1.36-2.22-15.52-4.26-15.52-2.24 0 0.44 0.54 1.34 1.2 2 1.4496 1.4496 15.213 1.6773 14.323 0.23703zm177.61-11.5c4.28-2.85 15.12-7.54 17.42-7.54 2.6133 0 1.1562-2.0962-3.0434-4.3782-4.95-2.69-6.51-4.11-6.51-5.93 0-2.3516-2.4392-3.7132-8.6541-4.8309-7.5745-1.3622-13.957 0.83293-12.919 4.443 0.34703 1.2067 0.90968 7.144 1.2503 13.194 0.69036 12.261 1.4227 13.514 5.8024 9.9305 1.6612-1.3593 4.6538-3.5588 6.6504-4.8878zm161.28-37.395c0.73825-1.1945-1.2129-3.2879-6.1002-6.5448-7.1176-4.7432-7.4293-2.1259-0.60417 5.0724 2.1988 2.3191 5.7052 3.0891 6.7044 1.4724zm-196.38-20.08c-0.57231-1.0694-1.4579-2.2022-1.9679-2.5174-0.51004-0.31523-1.4379-3.0324-2.0619-6.0383-1.2734-6.1341-2.5196-7.6327-3.5463-4.2645-0.37966 1.2455-1.3582 3.026-2.1746 3.9567-1.942 2.2138-1.6004 2.9033 3.5655 7.1969 4.8844 4.0596 7.9009 4.8724 6.1852 1.6667zm-37.138-42.646c2.8586-3.2876 2.4096-4.3341-4.0506-9.4406-5.9685-4.7178-6.8806-4.1404-3.8764 2.4541 1.1452 2.5139 2.5105 5.6972 3.0339 7.074 1.2016 3.1606 2.0827 3.1448 4.8931-0.0874zm10.264-9.9936c8.2924-6.841 8.7987-7.3719 8.2916-8.6933-0.47-1.25-5.52-4.73-6.84-4.73-0.33 0-0.6 0.91-0.6 2.03 0 4.7981-9.8827 1.0375-12.016-4.5722-0.51423-1.3525-1.2836-2.4612-1.7097-2.4637-0.42611-0.002-3.9248-2.9198-7.7748-6.483-7.7314-7.1554-10.119-8.1491-9.0407-3.7625 0.96653 3.9311 3.3284 7.25 5.1594 7.25 2.1648 0 7.3812 3.1892 7.3812 4.5127 0 0.59479 1.8 2.8391 4 4.9873 3.9997 3.9056 4.9951 7.1049 2.8714 9.2286-0.83811 0.83811-0.41446 1.7904 1.646 3.7 3.5134 3.2561 3.4551 3.2629 8.638-1.0128zm187.2-11.17c-0.60535-3.4333-1.7667-4.2137-2.69-1.8077-0.5688 1.4823 0.0774 7.8886 1.065 10.558 0.88615 2.395 2.2731-5.0737 1.6249-8.75zm-201.92 3.6672c-1.0693-2.3943-8.2948-8.1204-9.3915-7.4426-1.6386 1.0127 1.6334 6.3569 5.2318 8.5452 3.2482 1.9754 5.2923 1.4335 4.1596-1.1026zm197.57-0.36c0-3.1003-1.9051-4.5003-5.25-3.8582-3.8574 0.7405-3.4811 2.3812 1.25 5.4502 2.982 1.9344 4 1.5293 4-1.592zm-165.67-7.7984c2.759-3.6954 1.6794-5.2892-5.9157-8.733-8.6229-3.9098-21.279-12.924-22.006-15.672-0.83211-3.1471-5.9806-7.7361-7.8671-7.0122-2.5387 0.97419-3.1446 3.8794-1.0613 5.0887 8.3214 4.8308 28.984 22.641 31.182 26.878 1.6792 3.2367 2.933 3.1153 5.6686-0.54875zm161.49-2.8954c11.363-13.968 6.635-42.795-5.0948-31.065-5.265 5.265-7.0087 16.168-2.5951 16.227 6.8639 0.0921 7.5561 9.1329 1.2341 16.119-1.6462 1.819-1.1091 3.8496 1.0183 3.8496 0.69529 0 3.1422-2.3087 5.4376-5.1304zm-174.7 1.39c-2.23-4.12-24.43-24.25-26.74-24.25-12.916 0-4.0338 12.924 14.424 20.986 1.2678 0.55376 4.1928 1.8921 6.5 2.9741 5.3963 2.5307 7.0762 2.6146 5.8179 0.29033zm189.81-55.48c-1.12-3.905-2.75-5.77-5.05-5.77-3.0062 0-1.892 4.0144 2.4318 8.7607 2.5337 2.7814 3.8498 1.2811 2.6245-2.9915zm-31.5-33.103c-0.36-0.917-1.05-1.667-1.54-1.667-1.0456 0-1.2072 3.3524-0.20968 4.35 1.1247 1.1247 2.4315-0.88729 1.7425-2.6828zm11.57-0.804c0-4.6006-13.893-25.303-15.74-23.456-0.27549 0.27548 1.4876 3.5591 3.9181 7.2969 2.4304 3.7378 5.7326 9.3496 7.3382 12.471 2.59 5.051 4.48 6.602 4.48 3.688zm-395.74 297.39c-8.0428-7.8501-9.0128-9.5957-10.73-19.307-1.7319-9.7946-1.9292-16.328-0.56982-18.868 1.0769-2.0123 0.24383-9.0748-1.0705-9.0748-2.8379 0-5.318 8.6507-5.0889 17.75 0.16784 6.6666-0.1029 9.25-0.96939 9.25-0.66125 0-2.1382 0.87929-3.2822 1.954-2.4016 2.2562-3.0022 1.9677-7.1912-3.454-8.4701-10.963-11.045-18.663-7.3578-22 1.6244-1.47 2-3.08 2-8.5721 0-4.5402 0.65717-8.2952 2-11.428 1.1-2.5662 2-5.5501 2-6.6309 0-2.3188 4.7434-6.7923 7.25-6.8375 2.1844-0.0394 2.2231-0.48296-0.72399 8.2962-1.3607 4.0534-3.1906 11.6-4.0664 16.771-0.87585 5.1706-2.0878 11.102-2.6932 13.181-1.0318 3.5431-0.90995 3.9815 1.9464 7 1.676 1.7711 3.5671 4.2326 4.2024 5.4702 0.63535 1.2375 1.8668 2.25 2.7366 2.25 1.1856 0 1.4021-0.5632 0.86512-2.25-5.6595-17.777-0.23404-30.792 10.518-25.232 3.952 2.0436 4.1579 3.3864 3.6492 23.802l-0.44069 17.686 3.1592 2.7466c1.7376 1.5106 4.7758 3.8414 6.7517 5.1793 4.0137 2.7179 6.2155 5.6595 5.3203 7.108-1.0657 1.7243-2.2444 1.037-8.215-4.7907zm213.74 1.13c-9.0735-2.5172-35.152-14.198-36.474-16.337-1.5155-2.4522 0.43258-1.9284 8.9033 2.3939 4.8066 2.4526 10.946 5.1923 13.643 6.0881 2.6972 0.89587 5.1608 2.0444 5.4748 2.5524 0.31393 0.50795 1.3751 0.92354 2.3581 0.92354 0.98304 0 3.094 0.60296 4.691 1.3399 1.597 0.73695 4.0013 1.7828 5.3429 2.324 3.8811 1.5659 1.0075 2.0877-3.9392 0.71531zm-196-0.23972c0-0.47325-1.1289-2.5239-2.5086-4.5571-5.8722-8.6532-8.9347-35.729-4.6281-40.918 1.9609-2.3625 3.1367-1.1254 3.1367 3.3003 0 4.0634 3.8128 24.558 6.385 34.321 0.83844 3.1824 1.2717 6.4449 0.96274 7.25-0.6 1.55-3.35 2.05-3.35 0.6zm45.263-1.9089c-2.477-3.0241-2.898-4.6089-1.0618-3.9968 1.37 0.45665 5.143 6.7763 4.0281 6.7468-0.40132-0.0106-1.7361-1.2481-2.9663-2.75zm151.74-1.23c-4.4839-0.64056-3.6322-2.4849 1-2.1654 5.6889 0.39239 9.0549 1.2676 8.4762 2.2039-0.54688 0.88488-3.0844 0.87455-9.4762-0.0386zm-181.29-1.6972c-5.8916-10.081-4.2584-33.881 2.4454-35.634 4.2423-1.1094 6.3826 1.4833 3.1661 3.8353-1.3914 1.0174-1.7717 3.8113-2.25 16.53-0.528 14.039-1.5001 18.454-3.3615 15.269zm169.54-3.29c-4.4382-2.706-4.1068-3.4815 0.5-1.1701 2.0625 1.0348 4.425 2.1335 5.25 2.4414 1.0791 0.40276 0.93877 0.58097-0.5 0.63507-1.1 0.0414-3.4625-0.81649-5.25-1.9064zm-150.81-12.26c-2.0485-6.1875-5.4891-14.784-7.6459-19.103-4.25-8.5116-4.3126-9.2951-0.60792-7.6071 3.638 1.6576 13.798 17.957 13.809 22.152 0.002 0.93004 0.45419 1.9691 1.0042 2.309 2.0869 1.2898 0.69191 13.5-1.5423 13.5-0.75914 0-2.829-4.6415-5.0168-11.25zm152.06 9.08c-2.75-0.51485-5.9-1.0337-7-1.1529-2.5706-0.27873-19.5-8.8724-19.5-9.8986 0-1.3059 2.4224-0.87468 6.7018 1.1929 7.1699 3.4641 19.614 7.2982 25.718 7.9235 3.3721 0.34548 6.0978 1.1445 6.3333 1.8565 0.48819 1.4761-4.6142 1.5088-12.253 0.0787zm-130.77-7.08c-7.0194-11.372-7.0406-11.434-6.3331-18.339 0.81127-7.9184-0.63669-14.443-4.4284-19.954-4.4812-6.5132-3.4986-9.8551 1.6715-5.6849 4.1044 3.3106 5.7815 8.1746 5.9863 17.361 0.18008 8.0806 0.48146 9.2016 4.7046 17.5 4.0692 7.996 5.1153 11.306 4.7778 15.116-0.23831 2.6912-2.0881 0.95118-6.3787-6zm49.153-0.5c-0.85751-0.9625-4.5575-4.4732-8.2222-7.8015-10.439-9.481-8.5092-11.17 2.2496-1.9687 7.6954 6.5815 10.087 9.214 10.087 11.102 0 1.1055-2.7306 0.22172-4.1146-1.3318zm-44.013-18.011c0.51841-0.96865 1.9259-2.6511 3.1278-3.7388 3.9857-3.607 4.3935-5.3999 1.4801-6.5076-3.6545-1.3894-2.1464-2.9904 2.829-3.0032 4.8681-0.0126 13.343-2.386 15.618-4.3742 5.2182-4.5588 11.073-4.8638 11.073-0.57693 0 4.1145-14.961 11.99-20.183 10.624-1.2315-0.32203-3.7998 1.1726-7.5894 4.4165-6.0138 5.1479-7.9295 6.1003-6.3558 3.1598zm199.16-10.2c-1.2607-0.79727-1.2245-1.0259 0.25223-1.5925 2.1431-0.8224 6.7197 0.24899 6.7197 1.5731 0 1.2415-5.0174 1.2555-6.972 0.0194zm-308.03-42.18c-4.675-1.6495-9.9982-3.3789-11.829-3.8433-4.08-1.03-5.24-2.02-2.39-2.02 5.71 0 23.22 5.81 23.22 7.7 0 0.71635-0.1125 1.2713-0.25 1.2332s-4.075-1.4188-8.75-3.0683zm-23.769-6.5872c-1.798-0.22261-3.0378-0.77874-2.7553-1.2358 0.28251-0.45712 2.1267-0.46732 4.0982-0.0227 3.5939 0.81054 6.0012 2.1236 3.3428 1.8233-0.77917-0.088-2.8877-0.34217-4.6856-0.56477zm563.77-3.33c-3.575-0.45012-10.1-1.134-14.5-1.5197-4.7114-0.41301-9.0277-1.3832-10.5-2.3601-1.375-0.91232-3.7728-2.2058-5.3286-2.8744-8.538-3.6693 9.0973-4.7867 26.829-1.6999 4.4 0.76599 11.825 1.5323 16.5 1.7028l8.5 0.31015-0.10941-3c-0.0602-1.65-1.1174-5.7-2.3494-9-4.9077-13.146 13.3-48.271 21.496-41.469 0.87811 0.72876 1.9552 0.78475 3.1486 0.16366 0.99765-0.51922 4.2889-1.2472 7.3139-1.6178s7.3-1.4739 9.5-2.4519l4-1.7781-2.5-1.4032c-1.6589-0.93108-5.7635-1.41-12.2-1.4235-11.502-0.0241-13.897-1.2584-8.6838-4.4745 6.8501-4.2257 21.857-2.2677 28.087 3.6648 2.3113 2.2008 3.3263 2.4932 7 2.0167 5.9377-0.77022 12.202 0.42221 12.582 2.3951 0.75248 3.9073-16.177 8.3846-28.74 7.6008l-8.5357-0.53252-3.6232 3.8088c-3.14 3.31-6.69 10-5.29 10 0.26842 0 2.1678-1.7658 4.2208-3.9239 3.4779-3.656 8.521-6.0756 9.8641-4.7325 0.32107 0.32107-1.2764 4.1593-3.55 8.5294-5.8538 11.252-5.9756 11.103 10.873 13.22 17.143 2.154 30.872 2.3328 32.975 0.42955 1.6859-1.5257 2.2526-1.5329 7.1101-0.0904 6.02 1.79 10.92 2.04 10.92 0.57 0-0.55-0.8632-1-1.9182-1-2.72 0-5.08-1.04-5.08-2.23 0-0.62833 1.4418-0.77127 3.75-0.37178 2.0625 0.35696 7.125 1.2371 11.25 1.9559 5.2828 0.92051 10.013 1.057 16 0.46154 4.675-0.46493 9.4-0.79894 10.5-0.74224 3.8466 0.19825 5.0931 0.15708 18.005-0.59468 12.858-0.74864 13.039-0.72944 16 1.7016 3.634 2.9834 9.0007 5.248 10.395 4.3863 0.56129-0.3469 4.751-0.0927 9.3104 0.56489 9.0641 1.3073 16.879 0.5626 14.897-1.4195-0.63426-0.63426-2.6877-1.021-4.5631-0.85941-3.6529 0.31471-22.149-8.1662-26.016-11.929-2.4828-2.4159 0.2427-2.7952 4.4722-0.62243 2.2596 1.1608 17.31 6.1142 27.5 9.0507 2.9413 0.84762 4.0843 1.7459 4.3184 3.3939 0.17512 1.2327 1.2818 2.916 2.4593 3.7407 4.2299 2.9627-12.331 6.2784-22.778 4.5603-2.75-0.45231-5.3243-0.62845-5.7206-0.39143-0.39635 0.23703-1.9869-0.22386-3.5346-1.0242-1.5476-0.80033-4.5726-1.7851-6.7221-2.1883-2.1495-0.40325-5.3743-1.5982-7.1663-2.6555-3.5471-2.0928-4.0366-2.0907-36.856 0.15905-34.184 2.3433-58.406 2.9726-68.706 1.7849l-6.7056-0.7733 0.5149 4.7733c0.83891 7.777-4.8871 14.438-13.604 15.824-1.925 0.30623-6.585 1.2058-10.356 1.999l-6.8555 1.4423-5.9302-3.6604c-6.8686-4.2395-9.7779-3.5448-4.8653 1.1618 1.6536 1.5843 3.0056 3.1338 3.0045 3.4434-0.003 0.89935-22.862 0.90234-29.998 0.004zm48.956-9.3153c5.7208-2.229 11.39-8.1689 12.672-13.278 0.79876-3.1825-0.7601-4.8772-3.2701-3.5551-3.7071 1.9527-16.995 2.6806-15.474 0.84764 1.1522-1.3884 0.99448-1.7367-1.157-2.5547-1.3701-0.52092-3.4747-2.3284-4.6768-4.0166-3.2077-4.5048-4.6693-3.9147-5.4015 2.1806-1.4623 12.174-0.76256 15.72 4.1398 20.978 2.8462 3.0523 3.9152 3.0035 13.168-0.60175zm-5.96-29.56c0-3.3268-1.4807-4.8546-2.3952-2.4715-1.07 2.8-0.64 5.41 0.9 5.41 0.99331 0 1.5-0.99344 1.5-2.941zm-416 31.92c0-0.56179 1.2375-1.5657 2.75-2.231 8.9285-3.9271 23.007-14.738 29.777-22.865 6.0018-7.2052 8.4729-8.519 8.4729-4.505 0 7.398-8.458 17.651-18.186 22.046-9.2622 4.1843-9.7741 4.3919-16.22 6.5754-6.89 2.33-6.59 2.29-6.59 0.98zm190-0.98c-0.825-0.53316-3.6259-0.97627-6.2243-0.98469-14.088-0.0457-9.3574-18.752 8.428-33.326 2.8486-2.3342 5.358-5.5674 6.6475-8.5649 2.4806-5.7663 4.7058-7.9674 6.371-6.3022 0.84988 0.84988 0.79665 1.7741-0.21056 3.6561-1.7274 3.2276-0.77512 4.1699 2.1462 2.1237 4.8808-3.4187 20.097-0.0237 16.94 3.7797-1.07 1.29-0.53 2.62 1.06 2.62 1.35 0 6.84-8.15 6.84-10.15 0-1.38-0.75-1.85-2.97-1.85-1.6313 0-4.5648-0.76236-6.5187-1.6941-2.966-1.4144-4.0979-1.4969-6.8549-0.5-4.7422 1.7148-5.8449 1.5093-5.4799-1.0215 0.4587-3.1804 6.5925-7.0699 9.7945-6.2108 3.1743 0.85167 3.8913 0.84671 7.2499-0.0501 9.0968-2.4292 12.047 13.617 4.0049 21.78-5.882 5.9698-13.353 15.411-16.519 20.874-4.2091 7.2644-11.984 12.409-10.184 6.7388 0.5-1.56 0.12-1.92-1.98-1.92-3.0434 0-14.187-4.507-16.254-6.5738-2.84-2.84-5.29-1.14-5.29 3.66 0 2.2693 9.4828 6.9056 14.124 6.9056 3.3129 0 3.4554 0.53033 1.3023 4.8464-1.5964 3.2001-3.711 3.9087-6.4268 2.1536zm-251.61-12.42c-1.5751-4.1048 5.3659-32.669 10.654-43.843 5.6582-11.957 5.2117-16.464-0.9621-9.7098-3.4516 3.776-4.1599 4.1531-5.5826 2.9724-1.473-1.2225-1.3353-1.5825 1.4339-3.7498 3.6624-2.8663 3.9535-6.0836 1.0634-11.752-2.5083-4.9198-2.4978-5.5 0.0988-5.5 2.5187 0 6.6857 4.2501 9.4139 9.6017 1.093 2.1441 3.0528 5.2332 4.3549 6.8648 4.2184 5.2855 0.78843 17.939-11.801 43.534-5.9168 12.029-7.6259 14.312-8.673 11.583zm422.45-8.0403c-2.3895-1.9015-5.4696-4.3355-6.8446-5.4089-3.0596-2.3885-2.7743-2.6851 3.3548-3.4882 7.2602-0.95129 14.655 6.945 10.445 11.154-1.717 1.717-2.1292 1.5832-6.9554-2.2573zm139.41-7.28c-2.8875-0.202-5.25-0.81611-5.25-1.3647 0-1.1947 12.017-0.10176 13.45 1.2232 0.56907 0.52635 0.1681 0.8045-1 0.69369-1.0725-0.10174-4.3125-0.35026-7.2-0.55226zm-42.001-3.5086c0.50791-1.5237 12.938-4.9268 14.044-3.8448 1.1996 1.1739-1.2644 2.6732-6.4852 3.9463-6.0434 1.4737-8.0745 1.4464-7.5586-0.10152zm47.463-1.749c-7.518-0.43542-12.228-1.1491-13-1.9699-0.98612-1.048 1.8373-1.1639 15.195-0.62383 16.565 0.66978 19.432 1.1261 16.951 2.6983-1.4558 0.92243-1.408 0.92269-19.146-0.10459zm21.139-6.488c-0.43397-0.43398-22.024-1.3378-35.1-1.4694-5.0926-0.0512-6.3829-1.5999-2.2064-2.6481 3.0753-0.77186 2.7175-2.766-0.58269-3.2469-2.3647-0.34458-4.868-2.7171-4.9291-4.6713-0.0186-0.59502 2.9827-1.0448 7.2182-1.0817 22.94-0.19994 27.125-1.1242 26.506-5.8538-0.22973-1.7553-1.1129-1.9634-8.6881-2.0471-8.41-0.0929-11.806-1.5949-6.5743-2.9079 2.3951-0.60113 2.4753-0.79776 1.1163-2.738-2.4692-3.5252 0.43907-8.1838 6.0449-9.6832 3.7101-0.99231 4.7108-1.8 5.9733-4.8217l1.5166-3.6297 12.936 0.52468 12.936 0.52467 3.6574-2.9065c2.0115-1.5986 4.8202-3.1606 6.2414-3.4712 1.4212-0.31058 4.8341-1.1696 7.5841-1.909s6.125-1.3142 7.5-1.2774c11 0.29476 36.123-20.604 26.443-21.997-1.1203-0.16113-3.748 0.86824-5.8394 2.2875-8.9389 6.0661-20.249 10.504-26.833 10.529-3.4487 0.0131-8.0704 0.49154-10.27 1.0632-2.2 0.57162-6.8399 1.6847-10.311 2.4735-7.7916 1.7707-8.7074 2.2613-13.689 7.3334-4.1621 4.2375-8.3658 5.6568-6.9784 2.3561 0.40457-0.9625 0.9723-2.875 1.2616-4.25 0.28932-1.375 1.6641-4.0009 3.0551-5.8353 3.0235-3.9873 4.7504-20.856 2.0437-19.964-0.92915 0.3065-1.546 2.7242-1.8821 7.3774-1.03 14.08-14.63 25.44-30.48 25.44-5.6458 0-8.5251 1.6249-8.5437 4.8214-0.0324 5.5728-6.7521 14.734-13.99 19.073-6.8061 4.0802-8.0497 1.7483-2.5672-4.8138 1.888-2.2598 4.85-7.8149 6.5822-12.345 3.9356-10.292 5.0261-11.536 8.8456-10.095 4.4279 1.6713 10.566-1.0848 24.863-11.164 4.3301-3.0526 7.2846-8.6752 8.7984-16.745 1.3145-7.007 6.4868-8.2194 12.666-2.9691 2.2889 1.9447 3.921 10.159 3.1443 15.825l-0.63569 4.6379 4.2996-0.72642c2.3648-0.39953 5.9205-1.4041 7.9015-2.2324 1.981-0.82829 6.0402-2.1415 9.0204-2.9183 2.9802-0.77676 7.9302-2.729 11-4.3383 19.97-10.469 30.034-12.897 32.002-7.7205 0.47909 1.2601 1.593 2.8902 2.4752 3.6224 5.8155 4.8264-2.3873 18.416-15.929 26.389-2.906 1.7111-4.4011 3.1623-3.8381 3.7253 0.92893 0.92893 3.1322 0.65685 18.872-2.3305 10.964-2.0809 20.5-2.8808 20.5-1.7196 0 0.52114 1.7966 2.6739 3.9925 4.7838l3.9924 3.8363-4.2424 4.081c-2.3334 2.2445-5.5925 4.5099-7.2425 5.0342-4.9468 1.5717-4.0118 4.5824 1.75 5.6351 6.9084 1.2621 6.2703 3.4468-1 3.4236-3.1625-0.0101-6.2 0.0903-6.75 0.22319-0.55 0.13284-2.9125 0.18824-5.25 0.12311-4.6837-0.1305-5.6637-1.5468-1.75-2.5291 5.4257-1.3618 2.6192-2.8901-3.75-2.0421-6.0654 0.80759-14.646 1.0086-19.75 0.46268-1.375-0.14707-5.2503 0.0731-8.6119 0.48935-3.9129 0.48449-6.3399 0.38785-6.7456-0.26859-0.39631-0.64124 2.6426-1.4669 8.1119-2.204 19.616-2.6437 27.066-4.3202 37.208-8.3727 5.7958-2.316 10.46-4.6481 10.365-5.1824-0.5643-3.173-8.4201-2.836-24.327 1.0433-5.48 1.32-24.6 3.48-30.86 3.48-3.5876 0-3.8836-0.46316-1.6947-2.652 2.593-2.593 0.61683-3.6324-5.896-3.1011-11.112 0.90655-17.617 5.7145-9.3927 6.9431 2.3724 0.35442 4.6078 3.3195 3.4017 4.5121-0.44388 0.43888-4.3901 0.72398-8.7694 0.63357-9.5413-0.197-9.7946 0.89795-1.0199 4.4087 9.5853 3.835 5.8953 6.7973-6.9806 5.6038-8.4175-0.78025-11.204-0.0667-12.718 3.2572-1.6169 3.5487-1.1844 3.7946 7.1687 4.0757 5.7209 0.19254 15.355 0.70066 24.006 1.2662 0.44496 0.0291 0.5309 0.50288 0.19098 1.0529-0.37619 0.60869-8.3233 1.0221-20.309 1.0564-20.162 0.0578-26.691 1.0176-26.691 3.9238 0 1.1624 1.6104 1.5117 7.5 1.6266 4.125 0.0805 11.906 0.65589 17.29 1.2787 5.3847 0.62277 10.848 0.86684 12.141 0.54238 1.2928-0.32447 2.6511-0.10347 3.0186 0.49109 0.36746 0.59457 0.30406 1.1004-0.1409 1.1241-14.316 0.76151-19.056 0.877-19.459 0.47412zm-24.6-8.01c-0.36905-1.4762-3.5115-1.2155-4.028 0.33415-0.30489 0.91466 0.29775 1.2291 1.9167 1 1.3-0.18 2.25-0.78 2.11-1.33zm38.75-15.4c0-1.1872-9.6004-3.467-11.512-2.7336-2.2133 0.84931-1.801 2.4346 0.76162 2.9282 4.2633 0.82115 10.75 0.70377 10.75-0.19453zm5-10.022c0-1.0128-4.5088-2.6274-10.064-3.6039-3.7567-0.66035-7.934 1.9129-4.7985 2.956 4.85 1.61 14.86 2.05 14.86 0.65zm-7.24-6.33c-0.5-1.5-5.76-2.31-5.76-0.89 0 0.949 1.9724 1.7748 4.8333 2.0238 0.73334 0.0638 1.1486-0.4465 0.92288-1.134zm16.24 38.23c0-1.3732 4.8556-3.1514 7.4345-2.7226 1.6593 0.27591 1.304 0.67816-1.8066 2.0454-4.4711 1.9652-5.6279 2.1044-5.6279 0.67717zm-370-5.0314c0-0.58086 2.2367-3.8204 4.9704-7.199 3.7818-4.6738 5.2383-7.4703 6.0905-11.694 0.61605-3.0531 1.9228-6.9434 2.9038-8.6451 1.3106-2.2732 1.7225-4.8598 1.5527-9.75-0.25562-7.3648 0.86427-8.9238 1.8741-2.6089 0.36142 2.2602 1.0802 3.7795 1.6278 3.441 1.4503-0.89636 1.1906-6.6415-0.51934-11.488-2.4592-6.97-0.6947-7.4168 1.9493-0.49361 0.94655 2.4785 2.1327 4.252 2.6359 3.941 1.2822-0.79242 1.1446-7.8176-0.17893-9.1412-0.60158-0.60158-0.91707-1.9291-0.7011-2.95 0.25206-1.1915 1.0306 0.0239 2.1742 3.3938 1.8703 5.5117 4.1112 6.7738 6.6328 3.7355 1.0317-1.2432 0.79114-2.4122-1.343-6.5257-3.0392-5.8579-2.4696-8.9903 2.0254-11.138 6.21-2.98 1.86-37.83-4.72-37.83-6.3786 0-13.731 24.194-12.232 40.25 0.29528 3.1625 0.25341 5.75-0.093 5.75-1.3588 0-5.9012-8.5021-5.8386-10.928 0.0365-1.4145-0.53729-4.8219-1.2752-7.5719-2.5049-9.3354-3.7581-15.617-3.2226-16.152 0.95321-0.95321 3.6813 5.4655 3.6813 8.6614 0 1.8178 0.41525 2.852 1 2.4906 1.5351-0.94872 1.1888-9.8682-0.4682-12.059-2.5453-3.3652-1.71-5.1746 0.89615-1.9411 1.8316 2.2725 2.5377 2.6362 2.9114 1.5 0.27137-0.825 1.2503-3.5934 2.1755-6.1521 1.9379-5.3595 1.2794-8.8479-1.6701-8.8479-1.8032 0-1.9478 0.43015-1.3447 4 0.44427 2.6296 0.30308 4-0.4121 4-0.59835 0-1.1022-1.0125-1.1197-2.25s-0.68557-3.114-1.4846-4.1701c-6.081-8.0368 12.049-32.905 18.954-25.999 0.86934 0.86934 1.3249 1.9943 1.0124 2.5-1.0142 1.6409 0.59147 3.1297 2.0605 1.9105 3.0015-2.491 8.805 4.2988 8.9157 10.431 0.0973 5.392-3.3147 5.9498-4.7962 0.78416-1.0914-3.8056-5.8113-7.613-8.3795-6.7595-4.299 1.4287-7.4317 8.1059-5.6026 11.942 3.0165 6.3256 6.5469 6.0556 4.0015-0.30603-1.2459-3.1139-1.3054-3.8874-0.26802-3.4893 0.73302 0.28129 1.9375 2.4004 2.6766 4.7093 0.73913 2.3088 3.3615 6.5936 5.8276 9.5218 7.8855 9.3634 11.151 37.176 4.3645 37.176-2.1396 0-2.5054 2.606-0.82265 5.8601 3.1542 6.0995 2.1969 9.657-4.2924 15.951-3.2256 3.1287-6.2097 6.7919-6.6314 8.1403-0.42169 1.3484-2.9576 5.0843-5.6353 8.3019s-4.8686 6.4562-4.8686 7.1968c0 2.2678-5.6656 12.269-9.6522 17.038-3.73 4.46-5.35 5.51-5.35 3.45zm35.023-56.341c-0.80217-3.5567-2.3248-5.5478-4.2732-5.5875-1.3507-0.0276-0.78875 2.9884 1.331 7.1435 2.4919 4.8846 4.192 3.9855 2.9422-1.556zm-15.05-53.36c-0.0175-0.9625-0.69418-2.6258-1.5038-3.6962-1.9478-2.5754-3.811-0.78254-2.9114 2.8016 0.76246 3.0379 4.4677 3.7887 4.4152 0.89464zm383.94 110.33c-0.55989-0.5599-7.1642-1.2765-19.662-2.1334-19.584-1.3428-12.355-2.9249 14.544-3.1827 21.037-0.20164 25.98-0.54214 32.657-2.25 11.488-2.9383 14.194-0.62697 4.7985 4.0986-2.6125 1.3139-4.9 2.7265-5.0833 3.139-0.3425 0.77059-26.498 1.0858-27.255 0.32852zm-428.43-2.6093c-1.0146-1.6417 2.1991-4.6892 3.5355-3.3527 0.70769 0.70769 0.42762 1.5766-0.89358 2.7723-1.3793 1.2482-2.1276 1.4126-2.642 0.58041zm7.9535-6.2864c-0.38502-0.99947-0.24107-2.2762 0.31988-2.8371 1.507-1.507 2.5721 0.74975 1.367 2.8964-0.93591 1.6672-1.023 1.6641-1.6869-0.0593zm-157.93-1.22c-1.699-0.77796-6.4179-1.3932-10.881-1.4188-5.9425-0.034-10.002-0.75519-16.5-2.9316-4.7403-1.5876-10.744-3.4824-13.343-4.2106-4.8699-1.365-6.888-3.539-4.2316-4.5584 0.83098-0.31888 7.9607 0.41832 15.844 1.6382 7.8831 1.2199 15.986 1.9952 18.006 1.723 3.8179-0.5145 6.6054 1.1006 6.6054 3.8272 0 0.80531 1.7878 1.8281 4.25 2.4314 7.2969 1.7879 9.0733 2.4957 9.5016 3.7857 0.56152 1.6911-5.3315 1.5089-9.2516-0.28611zm548.32-1.0298c1.8999-0.85663 7.4602-1.6794 13-1.9237l9.6801-0.42681-7.5 1.3925c-4.125 0.76588-9.975 1.6315-13 1.9237l-5.5 0.53117zm-383.81-3.18c0.035-1.9236 1.2997-5.25 1.996-5.25 1.1664 0 2.0062 2.7952 1.352 4.5-0.58106 1.5142-3.3733 2.1397-3.348 0.75zm5.5116-13.859c-0.46595-4.351-0.33493-6.9816 0.3835-7.7 1.1611-1.1611 1.1945-0.97038 1.5889 9.0588 0.29431 7.4848-1.1304 6.5034-1.9724-1.3588zm8.1414 3.9421c-0.36667-0.36666-0.65299-4.5292-0.63626-9.25 0.0369-10.423 1.7071-9.0405 2.0555 1.7017 0.23058 7.1094-0.1 8.8676-1.4192 7.5483zm29.54-3.53c-5.9382-5.9382 2.7269-14.603 13.492-13.492 9.1022 0.93944 12.624 5.9672 5.0579 7.2206-4.9052 0.81257-7.1402 1.8457-11.077 5.1203-3.1188 2.5944-5.6416 2.9831-7.4733 1.1514zm-23.404-1.8986c-0.33913-0.8792-0.40611-3.1605-0.14885-5.0695 0.25727-1.909-0.22646-5.4647-1.075-7.9014-1.77-5.06-1.96-6.93-0.7-6.93 1.2299 0 2.8758 4.671 3.5237 10 0.61587 5.0653-0.59472 12.525-1.6068 9.9014zm-187.02-6.89c-2.43-4.74-3.16-7.01-2.26-7.01 2.7367 0 8.0602 10.437 6.5609 12.863-0.4198 0.67926-2.1837-1.7196-4.306-5.8562zm-55.53-2.13c-5.5183-1.5934-3.8501-3.0484 2.6516-2.3128 8.6643 0.98025 9.1064-0.44943 4.0442-13.079-4.53-11.29-4.57-11.49-2.15-11.49 4.4826 0 13.222 13.288 14.494 22.037 0.7589 5.2204-9.0742 7.7221-19.041 4.8443zm244.05-13.828c-0.30896-1.1815-2.0795-5.3151-3.9345-9.1859-3.68-7.67-5.37-14.86-3.5-14.86 0.6203 0 1.1278 0.92908 1.1278 2.0646 0 2.515 3.5477 11.086 6.6915 16.166 1.2697 2.0516 2.3085 4.3875 2.3085 5.191 0 2.4395-2.0952 2.9306-2.6964 0.63201zm-60.207-18.454c-6.4369-6.6412-1.7297-19.459 7.1852-19.566 4.2221-0.0505 4.3208 2.3785 0.31812 7.8312-3.9121 5.3293-4.2857 7.3111-2.0995 11.136 3.0067 5.2597-0.50885 5.6496-5.4038 0.59922zm66.649 0.15078c-1.461-3.8923 0.51473-12.75 2.8439-12.75 4.0037 0 5.7178 6.0386 3.2508 11.453-1.2346 2.7096-5.2442 3.563-6.0947 1.297zm-48.22-10.06c-0.79298-1.8979-2.11-3.7071-2.9266-4.0205-0.81667-0.31338-1.9546-2.3145-2.5288-4.4469-0.57421-2.1324-3.3024-6.6911-6.0626-10.13-6.8728-8.5636-5.6816-10.79 2.4514-4.582 4.8816 3.7262 6.4808 3.1801 5.1706-1.7657-0.7-2.64-12.9-11.643-16.87-12.439-1.51-0.303-2.75-1.137-2.75-1.854 0-1.2073 5.2839-1.3551 9.9463-0.27822 0.78921 0.18229 1.5888-0.36106 1.777-1.2074 0.25947-1.1673-1.4338-1.952-7.0129-3.25-9.5-2.211-12.42-2.268-10.71-0.211 2.3651 2.8498-1.8144 1.6593-12.57-3.5807-15.76-7.678-27.43-17.314-27.43-22.651 0-2.5459 2.1321-1.1174 8.9285 5.9821 6.4606 6.7487 7.0905 7.1585 9.1093 5.927 1.9315-1.1782 2.7319-0.9576 7.3155 2.0166 12.507 8.1152 30.477 12.3 38.034 8.8578 12.1-5.513 14.92-12.052 5.19-12.052-12.71 0-52.14-17.775-48.19-21.723 0.71256-0.71256 6.7208 1.899 15.921 6.9203 3.7458 2.0444 8.4708 4.2802 10.5 4.9685 2.0292 0.68826 4.1394 1.5567 4.6894 1.9298 1.3692 0.92882 9.5 2.2187 9.5 1.5071 0-0.31523-5.179-3.1306-11.509-6.2564-9.6042-4.7427-12.665-6.8552-18.498-12.765-12.926-13.098-6.4618-12.779 8.5991 0.42356 7.8578 6.8884 9.1066 7.518 9.9076 4.9942 0.76274-2.4032 2.2951-2.5313 5.279-0.44131 3.4074 2.3867 4.6085 0.80557 2.2666-2.9837-2.7542-4.4563-1.9718-4.7141 4.7162-1.5537 3.1558 1.4912 8.6629 3.6929 12.238 4.8927 3.575 1.1997 7.2814 2.61 8.2364 3.1341 2.3984 1.316 6.0117 1.1973 5.5518-0.18241-0.20811-0.62435-2.6081-2.0092-5.3333-3.0775-7.5707-2.9677-11.593-6.3883-10.875-9.2481 0.49463-1.9707-0.27267-2.9892-4.7447-6.2976-9.2007-6.8067-16.922-15.821-15.107-17.636 0.35627-0.35626-1.173-2.5508-3.3982-4.8768-4.47-4.67-10.33-12.988-10.33-14.659 0-3.1184 4.49-0.28722 11 6.93 5.9476 6.5976 7.7344 8 10.192 8 3.076 0 5.2136 1.7663 23.808 19.673 4.125 3.9724 10.078 9.3187 13.229 11.881 5.3072 4.3147 8.7706 9.0417 8.7706 11.971 0 1.9639-8.419 3.8111-13.997 3.0711-4.51-0.6-5-0.475-5 1.276 0 3.191-8.7612 3.9309-14.516 1.2258-4.92-2.317-6.48-2.587-6.48-1.124 0 1.2238 3.8494 3.1238 11.25 5.5527 6.6163 2.1715 6.8902 2.6042 2.659 4.2012-2.7254 1.0287-3.0166 1.5053-2.4621 4.03 0.69949 3.1847-0.63893 4.8313-6.2296 7.6638-3.9071 1.9795-3.2882 3.8348 1.1319 3.393 4.4862-0.44845 4.1271 2.2096-0.59917 4.435-4.747 2.2352-4.7606 2.1611 1.5 8.1924 9.8759 9.514 15.645 32.558 8.1512 32.558-1.3552 0-2.7274 0.68649-3.0494 1.5255-0.78 2.03-3.35 0-3.35-2.65 0-1.04-0.46-1.88-1.02-1.88-0.57525 0-0.75771 1.0413-0.41897 2.3909 0.97722 3.8936-1.4447 4.134-3.0457 0.30234zm4.4409-22.843c-1.1109-3.8735-1.7478-4.5598-2.4745-2.6663-0.74018 1.9289 1.2451 7.1018 2.4417 6.3623 0.56133-0.34692 0.57427-1.8078 0.0327-3.696zm-8.96-10.52c0-1.463-3.41-4.33-5.15-4.33-2.7036 0-2.2505 1.7161 0.90499 3.428 3.0496 1.6544 4.25 1.9088 4.25 0.90072zm1-43.261c0-1.1668-3.922-2.4787-4.7964-1.6043-0.74946 0.74946 1.7113 2.4991 3.5464 2.5216 0.6875 0.0084 1.25-0.40436 1.25-0.9173zm30.5-5.5901c-2.2-1.8962-4.3729-3.4543-4.8286-3.4625-1.0084-0.01811-14.421-10.928-17.076-13.89-2.0004-2.2314-4.2004-2.6616-6.4189-1.255-1.6271 1.0316-1.6038 1.0557 10.738 11.106 8.7688 7.1407 15.245 10.739 19.586 10.883 1.5845 0.0524 1.169-0.65005-2-3.3814zm95.67 80.021c-0.10519-1.65-0.42292-4.8-0.70607-7-0.44833-3.4834-0.37638-3.6821 0.55715-1.5382 0.58958 1.354 0.90731 4.504 0.70607 7-0.22784 2.8258-0.43806 3.4062-0.55715 1.5382zm-61.446-31.27c-2.2743-5.6357-2.1529-6.4532 0.37274-2.5099 1.1343 1.7709 1.9021 4.0209 1.7064 5-0.2382 1.1914-0.92578 0.36794-2.0791-2.4901zm-80.22-17.767c-10.425-1.9137-10.9-2.0896-20.578-7.6192-5.8394-3.3364-20.004-14.193-23.351-17.897-6.147-6.804-2.1465-9.0096 4.2695-2.3538 1.8371 1.9058 5.6621 4.641 8.5 6.0783s8.9848 5.1746 13.66 8.305c8.48 5.6783 13.819 8.2594 23.75 11.481 9.871 3.2025 6.3774 4.3238-6.25 2.0058zm54.893-1.045c0.34-0.87 0.61-1.748 0.61-1.952 0-1.0335 9.1568-6.4874 10.008-5.9611 1.8431 1.1391 1.0081 2.4633-3.7584 5.9603-5.1306 3.7641-7.8492 4.5383-6.857 1.9527zm23.11-23.494c-2.9791-2.3321-6.0859-3.9161-7.6868-3.9191-2.5476-0.0048-13.905-6.9066-18.285-11.112-1.96-1.881-1.96-1.893 0.25-1.893 2.5448 0 2.9354-2.1632 0.72222-4-8.395-6.9672 3.0501-2.4285 13 5.1553 18.926 14.426 20.179 15.632 19.115 18.405-0.78005 2.0328-1.4829 1.7723-7.1151-2.6366zm-35.25-21.144c-1.24-0.597-2.25-1.467-2.25-1.933 0-1.5551 2.6679-0.87164 4.5 1.1528 1.9836 2.1918 1.224 2.455-2.25 0.7795zm-50.36-13.241c-8.73-6.552-12.76-11.073-11.23-12.586 0.46371-0.45846 5.533 3.6396 11.265 9.1069 12.088 11.529 12.078 12.568-0.0321 3.479z"/>
</svg>
